<svg width="274" height="180" viewBox="0 0 274 180" fill="none" xmlns="http://www.w3.org/2000/svg">
<g clip-path="url(#clip0_20571_2947)">
<path d="M252.805 86.9175H30.6217C27.6436 86.9175 25.2207 84.4871 25.2207 81.4994V5.41776C25.2207 2.43039 27.6436 0 30.6217 0H252.805C255.784 0 258.207 2.43039 258.207 5.41776V81.4994C258.207 84.4871 255.784 86.9175 252.805 86.9175ZM30.6217 0.645917C27.9987 0.645917 25.8646 2.78662 25.8646 5.41776V81.4994C25.8646 84.1307 27.9987 86.2716 30.6217 86.2716H252.805C255.428 86.2716 257.563 84.1307 257.563 81.4994V5.41776C257.563 2.78662 255.428 0.645917 252.805 0.645917H30.6217Z" fill="#3F3D56"/>
<path d="M274 177.807H0V178.351H274V177.807Z" fill="#E6E6E6"/>
<path d="M274 150.033H0V150.576H274V150.033Z" fill="#E6E6E6"/>
<path d="M124.868 89.7154C125.065 92.1957 126.501 94.1044 128.074 93.9785C129.648 93.8526 130.763 91.7401 130.566 89.259C130.501 88.2668 130.2 87.3047 129.688 86.4531L128.722 75.9546L123.82 76.5143L125.293 86.8046C124.922 87.7269 124.776 88.7251 124.868 89.7154Z" fill="#FFB6B6"/>
<path d="M119.014 40.7355C119.014 40.7355 123.596 38.3024 125.919 41.9384C128.243 45.5744 129.846 84.8987 129.846 84.8987L123.406 85.5884L122.186 57.8777L119.014 40.7355Z" fill="#E6E6E6"/>
<path d="M109.504 147.981L113.234 147.98L115.009 133.546L109.503 133.546L109.504 147.981Z" fill="#FFB6B6"/>
<path d="M122.284 147.896C122.401 148.092 122.462 148.726 122.462 148.954C122.462 149.655 121.895 150.224 121.196 150.224H109.642C109.165 150.224 108.778 149.836 108.778 149.357V148.875C108.778 148.875 108.207 147.425 109.384 145.637C109.384 145.637 110.846 147.037 113.031 144.845L113.676 143.674L118.341 147.096L120.926 147.415C121.492 147.485 121.993 147.404 122.284 147.896Z" fill="#2F2E41"/>
<path d="M131.091 147.361L134.705 146.435L132.863 132.009L127.528 133.376L131.091 147.361Z" fill="#FFB6B6"/>
<path d="M143.454 144.106C143.615 144.267 143.831 144.866 143.887 145.087C144.06 145.766 143.651 146.458 142.974 146.632L131.78 149.5C131.318 149.619 130.847 149.339 130.729 148.875L130.61 148.408C130.61 148.408 129.699 147.144 130.398 145.12C130.398 145.12 132.16 146.113 133.736 143.447L134.072 142.152L139.436 144.31L142.02 143.977C142.585 143.905 143.051 143.702 143.454 144.106Z" fill="#2F2E41"/>
<path d="M106.416 37.6328L106.239 36.3451L108.342 31.1946L114.118 30.5508L115.365 37.9244L106.416 37.6328Z" fill="#FFB6B6"/>
<path opacity="0.1" d="M106.416 37.6328L106.239 36.3451L108.342 31.1946L114.118 30.5508L115.365 37.9244L106.416 37.6328Z" fill="black"/>
<path d="M99.6767 74.0084L97.1094 81.0904L99.0349 84.9533L108.662 140.965H115.063L113.797 91.3915L128.559 140.965H134.894L129.8 107.487L125.992 76.5837L123.682 75.1524L112.513 68.8579L99.6767 74.0084Z" fill="#2F2E41"/>
<path d="M116.043 78.8372L112.192 79.4811L107.058 67.2485H118.611L116.043 78.8372Z" fill="#E6E6E6"/>
<path d="M123.745 75.618L116.043 78.8371L113.476 73.0428L112.192 79.4809L98.7139 75.1287L100.639 67.2484L98.7139 41.4957L105.511 36.9504L106.416 36.3452L114.76 36.989L115.491 37.3882L120.536 40.2081L121.82 61.4541L123.745 75.618Z" fill="#2F2E41"/>
<path d="M115.492 37.3882L111.872 52.7625L105.512 36.9504L106.417 36.3452L114.76 36.989L115.492 37.3882Z" fill="#E6E6E6"/>
<path d="M109.304 36.3452L108.021 38.5628L109.304 39.302L108.662 52.8025L111.23 56.3035L113.797 51.1292L111.871 39.302L112.513 36.3452H109.304Z" fill="#2F2E41"/>
<path d="M111.229 35.0577C114.597 35.0577 117.327 32.3194 117.327 28.9415C117.327 25.5635 114.597 22.8252 111.229 22.8252C107.862 22.8252 105.132 25.5635 105.132 28.9415C105.132 32.3194 107.862 35.0577 111.229 35.0577Z" fill="#FFB6B6"/>
<path d="M107.334 29.4776L108.651 30.0543L109.226 26.5938C109.226 26.5938 111.526 25.4403 113.251 26.017C114.976 26.5938 117.851 26.017 117.851 26.017C117.851 26.017 117.851 20.2495 113.826 20.2495C109.801 20.2495 105.776 20.8263 105.776 22.5565C105.776 24.2868 104.051 26.017 104.051 26.017C104.051 26.017 101.752 29.4776 104.051 31.7846C106.351 34.0916 107.501 34.0916 107.501 34.0916L107.334 29.4776Z" fill="#2F2E41"/>
<path d="M95.5026 89.5344C95.4357 92.0216 96.6609 94.0723 98.2389 94.1148C99.817 94.1572 101.15 92.1754 101.216 89.6873C101.257 88.6938 101.059 87.705 100.64 86.8038L100.791 76.2617L95.8575 76.2963L96.2328 86.6852C95.766 87.5628 95.5157 88.5398 95.5026 89.5344Z" fill="#FFB6B6"/>
<path d="M101.605 40.1958C101.605 40.1958 97.4336 38.9081 95.5081 42.771C93.5826 46.6339 96.1499 85.9068 96.1499 85.9068H102.626L100.907 58.2226L101.605 40.1958Z" fill="#E6E6E6"/>
<path d="M261.645 113.361L246.087 108.584C245.743 108.478 245.382 108.44 245.023 108.47L166.174 115.201C165.05 115.297 164.767 116.818 165.782 117.314L168.307 118.548H168.24V177.634H170.62V119.679L178.536 123.547C179.141 123.843 179.817 123.964 180.487 123.896L181.33 123.81V177.634H183.71V123.569L244.695 117.39V177.634H247.075V117.149L257.19 116.124V177.634H259.57V115.883L261.415 115.696C262.711 115.565 262.89 113.743 261.645 113.361Z" fill="#3F3D56"/>
<path d="M189.064 114.967C190.552 114.967 212.566 112.282 212.566 112.282L215.839 116.758L192.932 121.234L189.064 114.967Z" fill="white"/>
<path d="M213.226 175.34L209.402 175.333L207.607 160.531L213.252 160.541L213.226 175.34Z" fill="#A0616A"/>
<path d="M200.122 175.23C200.003 175.431 199.939 176.081 199.938 176.315C199.937 177.034 200.517 177.618 201.234 177.619L213.079 177.639C213.568 177.64 213.965 177.243 213.966 176.753L213.967 176.258C213.967 176.258 214.555 174.772 213.352 172.938C213.352 172.938 211.85 174.37 209.614 172.119L208.955 170.917L204.167 174.417L201.516 174.74C200.936 174.811 200.421 174.727 200.122 175.23Z" fill="#2F2E41"/>
<path d="M233.754 168.457L230.736 170.74L220.521 160.151L224.974 156.781L233.754 168.457Z" fill="#A0616A"/>
<path d="M223.364 176.211C223.39 176.441 223.725 176.991 223.864 177.175C224.291 177.743 225.095 177.856 225.661 177.428L235.006 170.356C235.392 170.064 235.468 169.514 235.177 169.127L234.884 168.737C234.884 168.737 234.464 167.214 232.425 166.488C232.425 166.488 232.094 168.515 228.993 168.08L227.759 167.527L226.068 173.15L224.171 174.991C223.755 175.394 223.301 175.635 223.364 176.211Z" fill="#2F2E41"/>
<path d="M225.76 91.9593C225.76 95.4972 222.901 98.3653 219.374 98.3653C215.847 98.3653 212.987 95.4972 212.987 91.9593C212.987 88.4213 215.847 85.5532 219.374 85.5532C222.901 85.5532 225.76 88.4213 225.76 91.9593Z" fill="#A0616A"/>
<path d="M225.158 128.895C225.158 128.895 201.645 127.56 200.314 130.23C198.983 132.901 207.509 169.578 207.509 169.578L215.116 167.978L211.405 142.246C211.405 142.246 231.027 147.459 233.688 141.228C236.35 134.998 235.584 132.678 235.584 132.678L225.158 128.895Z" fill="#2F2E41"/>
<path d="M231.183 124.413C231.183 124.413 208.155 129.365 207.575 132.293C206.996 135.221 224.891 168.329 224.891 168.329L231.805 164.769L221.44 140.938C221.44 140.938 241.737 140.758 242.661 134.043C243.585 127.328 242.234 125.295 242.234 125.295L231.183 124.413Z" fill="#2F2E41"/>
<path d="M233.809 99.3008H222.745L215.175 111.761C215.175 111.761 213.401 119.814 215.175 120.683C216.95 121.552 216.95 130.897 216.95 130.897L235.583 132.678C235.583 132.678 238.245 104.641 237.358 101.971C236.471 99.3008 233.809 99.3008 233.809 99.3008Z" fill="#518672"/>
<path d="M216.285 107.534L215.176 120.683L202.701 115.372L199.723 113.87C199.14 113.107 198.383 112.496 197.516 112.086C195.36 111.032 193.071 111.293 192.402 112.669C191.734 114.045 192.939 116.015 195.095 117.068C195.951 117.501 196.898 117.723 197.856 117.713L206.568 122.676L206.578 122.657L206.617 122.726L220.278 128.45L223.421 111.188L216.285 107.534Z" fill="#A0616A"/>
<path d="M214.954 92.8479C214.954 92.8479 208.3 93.738 210.962 87.9527C210.962 87.9527 210.556 84.8165 212.533 84.6045C214.511 84.3925 217.173 80.8323 217.173 80.8323C217.173 80.8323 223.275 77.7171 226.435 80.8323C229.595 83.9474 238.911 102.193 238.911 102.193L232.7 108.869C232.7 108.869 228.966 99.0222 224.622 100.163C220.278 101.303 216.285 104.704 216.285 104.704C216.285 104.704 211.877 102.491 213.859 100.562C215.842 98.6332 214.954 92.8479 214.954 92.8479Z" fill="#2F2E41"/>
<path d="M223.826 102.639C223.826 102.639 220.721 98.6336 218.503 101.749C216.284 104.864 214.51 108.869 214.51 108.869L223.383 111.984L223.826 102.639Z" fill="#518672"/>
<path d="M257.516 176.749L247.207 143.881L247.209 143.881H247.233L247.191 143.827L247.19 143.826L246.456 141.485L246.456 141.485C247.575 140.518 248.336 139.136 248.488 137.546L243.776 111.548C244.1 108.134 241.491 105.15 238.073 105.028L227.441 105.001C224.418 104.893 221.8 107.084 221.36 110.086L221.125 111.679L217.867 133.908C217.748 134.708 217.796 135.496 217.983 136.233L215.639 136.54L214.928 136.636L212.117 137.003L212.108 137.006L211.757 137.05H211.376V146.6H211.4V177.121C211.4 177.318 211.56 177.479 211.757 177.479C211.956 177.479 212.117 177.318 212.117 177.121V146.6H216.288L220.449 177.086C220.476 177.265 220.628 177.396 220.806 177.396C220.821 177.396 220.839 177.396 220.854 177.393C221.05 177.366 221.187 177.184 221.16 176.987L217.013 146.6H237.026C239.013 146.6 240.854 145.967 242.353 144.884L250.288 177.03C250.329 177.192 250.475 177.3 250.635 177.3C250.664 177.3 250.694 177.297 250.724 177.289C250.915 177.24 251.031 177.045 250.983 176.852L242.971 144.396C243.078 144.307 243.184 144.212 243.285 144.114L246.47 143.926L256.833 176.965C256.881 177.118 257.022 177.216 257.174 177.216C257.21 177.216 257.246 177.211 257.282 177.2C257.471 177.14 257.576 176.938 257.516 176.749ZM245.775 141.995C245.802 141.98 245.826 141.962 245.849 141.947L245.926 142.191L245.775 141.995Z" fill="#E6E6E6"/>
<path d="M55.2383 121.037L62.1762 116.611L64.9969 118.318L55.2383 129.565V121.037Z" fill="#FFB6B6"/>
<path d="M45.7504 103.906C45.7504 103.906 41.1421 104.994 43.3107 111.248C45.4793 117.502 52.5272 130.553 54.6958 129.738C56.8643 128.922 57.1354 120.765 57.1354 120.765C57.1354 120.765 56.8643 121.037 55.78 119.949C54.6958 118.861 54.6958 119.358 54.6958 118.158C54.6958 116.958 53.8089 116.068 53.8089 116.068L52.7982 113.967C52.7982 113.967 52.7982 104.178 48.7322 103.634C44.6661 103.09 45.7504 103.906 45.7504 103.906Z" fill="#E6E6E6"/>
<path d="M67.2798 118.025C69.0794 116.22 69.6372 113.852 68.5257 112.737C67.4142 111.623 65.0542 112.182 63.2546 113.987C61.455 115.792 60.8972 118.16 62.0087 119.275C63.1202 120.39 65.4802 119.83 67.2798 118.025Z" fill="#FFB6B6"/>
<path d="M27.8008 139.935L32.5349 147.795L60.1236 146.157L52.7775 136.66L27.8008 139.935Z" fill="#E6E6E6"/>
<path d="M36.0447 176.697C35.884 176.697 35.744 176.578 35.7216 176.414L27.4777 116.018C27.4532 115.839 27.5782 115.674 27.7568 115.649C27.9354 115.623 28.1 115.75 28.1246 115.929L36.3685 176.325C36.393 176.504 36.268 176.669 36.0894 176.694C36.0743 176.696 36.0594 176.697 36.0447 176.697Z" fill="#E6E6E6"/>
<path d="M27.8011 176.774C27.6208 176.774 27.4746 176.627 27.4746 176.446V115.986C27.4746 115.805 27.6208 115.658 27.8011 115.658C27.9814 115.658 28.1276 115.805 28.1276 115.986V176.446C28.1276 176.627 27.9814 176.774 27.8011 176.774Z" fill="#E6E6E6"/>
<path d="M69.184 176.534C69.0453 176.534 68.9165 176.444 68.8727 176.304L49.3647 114.108C49.3106 113.935 49.4062 113.751 49.5782 113.697C49.7501 113.643 49.9336 113.738 49.9876 113.911L69.4955 176.108C69.5497 176.28 69.4541 176.464 69.2821 176.519C69.2495 176.529 69.2165 176.534 69.184 176.534Z" fill="#E6E6E6"/>
<path d="M63.2254 176.61C63.0796 176.61 62.9468 176.512 62.9092 176.363L49.3597 121.47C49.3153 121.295 49.421 121.117 49.5957 121.072C49.771 121.028 49.9482 121.134 49.9926 121.309L63.5421 176.202C63.5865 176.377 63.4809 176.555 63.3061 176.6C63.2791 176.607 63.252 176.61 63.2254 176.61Z" fill="#E6E6E6"/>
<path d="M27.8008 116.949L50.4104 116.601L54.5732 140.427H28.1273L27.8008 116.949Z" fill="#E6E6E6"/>
<path d="M62.5467 151.983L56.8486 162.046L63.4645 163.507L66.2227 156.35L62.5467 151.983Z" fill="#FFB6B6"/>
<path d="M58.895 160.146C58.895 160.146 58.6736 158.505 57.3719 159.026C56.0702 159.547 52.3135 161.482 52.3135 161.482C52.3135 161.482 62.1119 177.453 63.9715 176.709C65.831 175.965 63.605 171.45 63.605 171.45L64.0963 163.47L58.895 160.146Z" fill="#2F2E41"/>
<path d="M37.3471 132.457C37.3471 132.457 35.314 141.838 41.5487 145.101C47.7833 148.364 69.0625 140.342 69.0625 140.342L59.3039 155.01L66.0807 157.745C66.0807 157.745 81.5318 137.351 80.4475 134.088C79.3632 130.825 72.0443 130.554 72.0443 130.554L55.5089 131.369L51.1717 130.01L37.3471 132.457Z" fill="#2F2E41"/>
<path d="M54.117 156.449L45.1592 163.742L50.7915 167.518L55.9569 161.858L54.117 156.449Z" fill="#FFB6B6"/>
<path d="M47.7545 162.72C47.7545 162.72 48.1436 161.111 46.7423 161.121C45.3409 161.131 41.1396 161.562 41.1396 161.562C41.1396 161.562 44.4729 180.014 46.4748 180C48.4768 179.986 48.041 174.968 48.041 174.968L51.3934 167.715L47.7545 162.72Z" fill="#2F2E41"/>
<path d="M37.7281 129.063C37.7281 129.063 32.4314 137.059 37.055 142.374C41.6786 147.689 64.4088 147.985 64.4088 147.985L49.9985 158.084L55.3185 163.106C55.3185 163.106 77.1083 149.75 77.282 146.315C77.4557 142.88 70.7371 139.955 70.7371 139.955L55.0394 134.68L51.4928 131.83L37.7281 129.063Z" fill="#2F2E41"/>
<path d="M51.3349 110.544C51.3349 110.544 46.1846 108.64 43.7449 108.64C43.5118 108.64 43.2814 108.668 43.051 108.717C41.4896 109.048 40.0529 110.394 39.3644 111.128C39.096 111.417 38.9415 111.61 38.9415 111.61C38.9415 111.61 38.9578 111.422 38.9903 111.093C39.1502 109.364 39.7412 103.689 40.8011 100.056C41.1806 98.7591 41.617 97.7232 42.1185 97.2201C43.2868 96.0455 43.8262 94.637 44.0756 93.5874C44.2871 92.6873 44.2871 92.0538 44.2871 92.0538L42.3109 91.2L41.945 88.8017C41.8799 89.0845 41.579 89.6365 40.5679 90.6942C40.4812 90.784 40.3863 90.8601 40.286 90.9254C38.8277 91.8444 35.854 90.2456 34.252 89.2395C34.9188 86.9147 36.1278 84.7883 38.3235 84.4403C43.4738 83.6245 43.4738 80.6335 46.7267 83.8964C46.9951 84.1656 47.2661 84.4239 47.5372 84.6741C48.5781 86.6699 48.9576 89.3455 49.0932 91.2054C49.1908 92.5079 49.1663 93.4134 49.1663 93.4134C49.1663 93.4134 50.5217 101.571 52.6903 103.202C54.8589 104.834 51.3349 110.544 51.3349 110.544Z" fill="#2F2E41"/>
<path d="M41.3052 97.4922L37.6426 102.881L45.9135 105.106V97.4922H41.3052Z" fill="#FFB6B6"/>
<path opacity="0.1" d="M41.3052 97.4922L37.6426 102.881L45.9135 105.106V97.4922H41.3052Z" fill="black"/>
<path d="M46.428 102.683L38.5669 99.4199C38.5669 99.4199 27.9951 104.042 28.8083 113.016C29.6215 121.989 37.2115 137.488 37.2115 137.488L52.3916 130.962L50.7651 113.559L46.428 102.683Z" fill="#E6E6E6"/>
<path d="M43.0575 99.8981C46.8878 99.8981 49.9928 96.7834 49.9928 92.9412C49.9928 89.0991 46.8878 85.9844 43.0575 85.9844C39.2271 85.9844 36.1221 89.0991 36.1221 92.9412C36.1221 96.7834 39.2271 99.8981 43.0575 99.8981Z" fill="#FFB6B6"/>
<path d="M52.4192 90.4223C51.0638 91.7819 49.9795 93.1414 49.9795 93.1414L49.4374 90.9661C49.4374 90.9661 49.3127 91.0586 49.0931 91.2054C48.2338 91.7928 45.927 93.2692 44.0756 93.5874C43.2515 93.7288 42.5196 93.639 42.0425 93.1414C41.0314 92.0837 40.7306 91.5317 40.6655 91.2489L40.2995 93.6472L38.3234 94.501C38.3234 94.501 38.3234 97.4866 40.492 99.6673C40.5977 99.7734 40.7007 99.9039 40.801 100.056C41.8365 101.622 42.5793 105.456 43.0509 108.717C43.4684 111.615 43.669 114.057 43.669 114.057C43.669 114.057 41.617 111.479 39.3643 111.128C39.2397 111.109 39.115 111.096 38.9903 111.093C38.9496 111.088 38.9062 111.088 38.8656 111.088C36.4259 111.088 31.2756 112.991 31.2756 112.991C31.2756 112.991 27.7516 107.281 29.9202 105.649C32.0888 104.018 33.4441 95.8606 33.4441 95.8606C33.4441 95.8606 33.3547 92.3692 34.2519 89.2395C34.9188 86.9147 36.1278 84.7883 38.3234 84.4403C43.4738 83.6245 43.4738 80.6335 46.7267 83.8964C46.995 84.1656 47.2661 84.424 47.5372 84.6741C50.5678 87.4694 53.6634 89.1742 52.4192 90.4223Z" fill="#2F2E41"/>
<path d="M22.0005 126.923H19.4248V177.95H22.0005V126.923Z" fill="#3F3D56"/>
<path d="M84.4614 126.923H81.8857V177.95H84.4614V126.923Z" fill="#3F3D56"/>
<path d="M68.0415 105.284H50.9775V122.401H68.0415V105.284Z" fill="#518672"/>
<path d="M41.1416 123.484L48.0796 119.058L50.9002 120.765L41.1416 132.013V123.484Z" fill="#FFB6B6"/>
<path d="M31.6537 106.353C31.6537 106.353 27.0455 107.441 29.214 113.695C31.3826 119.949 38.4305 133.001 40.5991 132.185C42.7676 131.369 43.0387 123.212 43.0387 123.212C43.0387 123.212 42.7677 123.484 41.6834 122.396C40.5991 121.309 40.5991 121.805 40.5991 120.605C40.5991 119.405 39.7122 118.516 39.7122 118.516L38.7016 116.414C38.7016 116.414 38.7016 106.625 34.6355 106.081C30.5694 105.538 31.6537 106.353 31.6537 106.353Z" fill="#E6E6E6"/>
<path d="M53.1831 120.472C54.9828 118.667 55.5406 116.3 54.429 115.185C53.3175 114.07 50.9575 114.629 49.1579 116.435C47.3583 118.24 46.8005 120.607 47.912 121.722C49.0236 122.837 51.3835 122.277 53.1831 120.472Z" fill="#FFB6B6"/>
<path d="M89.6129 124.985H11.6982V130.798H89.6129V124.985Z" fill="#3F3D56"/>
<path d="M168.773 78.479H157.266C156.354 78.479 155.614 79.2208 155.614 80.1358V84.8962C155.614 85.8112 156.354 86.553 157.266 86.553H168.773C169.685 86.553 170.424 85.8112 170.424 84.8962V80.1358C170.424 79.2208 169.685 78.479 168.773 78.479Z" fill="#3F3D56"/>
<path d="M192.92 83.2397H181.413C180.501 83.2397 179.762 83.9815 179.762 84.8965V84.8965C179.762 85.8115 180.501 86.5533 181.413 86.5533H192.92C193.832 86.5533 194.572 85.8115 194.572 84.8965V84.8965C194.572 83.9815 193.832 83.2397 192.92 83.2397Z" fill="#518672"/>
</g>
<defs>
<clipPath id="clip0_20571_2947">
<rect width="274" height="180" fill="white"/>
</clipPath>
</defs>
</svg>
