<svg width="32" height="32" viewBox="0 0 32 32" fill="none" xmlns="http://www.w3.org/2000/svg">
<g clip-path="url(#clip0_22103_3344)">
<path d="M6.35133 31.6801H5.89052C5.30172 31.6801 4.82812 31.2001 4.82812 30.6177V3.32174C4.82812 2.73294 5.30812 2.25934 5.89052 2.25934H6.35133C6.94013 2.25934 7.41373 2.73934 7.41373 3.32174V30.6177C7.41373 31.2001 6.94013 31.6801 6.35133 31.6801Z" fill="#ECF4F7"/>
<path d="M4.82 21.6516C4.6408 21.6516 4.5 21.5108 4.5 21.3316V20.0964C4.5 19.9172 4.6408 19.7764 4.82 19.7764C4.9992 19.7764 5.14 19.9172 5.14 20.0964V21.3316C5.14 21.5108 4.9992 21.6516 4.82 21.6516Z" fill="#1C1D21"/>
<path d="M6.35101 32.0003H5.89021C5.12861 32.0003 4.50781 31.3795 4.50781 30.6179V23.0403C4.50781 22.8611 4.64861 22.7203 4.82781 22.7203C5.00701 22.7203 5.14781 22.8611 5.14781 23.0403V30.6179C5.14781 31.0275 5.48061 31.3603 5.89021 31.3603H6.35101C6.76061 31.3603 7.09341 31.0275 7.09341 30.6179V3.32185C7.09341 2.91225 6.76061 2.57945 6.35101 2.57945H5.89021C5.48061 2.57945 5.14781 2.91225 5.14781 3.32185V18.1123C5.14781 18.2915 5.00701 18.4323 4.82781 18.4323C4.64861 18.4323 4.50781 18.2915 4.50781 18.1123V3.32185C4.50781 2.56025 5.12861 1.93945 5.89021 1.93945H6.35101C7.11261 1.93945 7.73341 2.56025 7.73341 3.32185V30.6179C7.73341 31.3795 7.11261 32.0003 6.35101 32.0003Z" fill="#1C1D21"/>
<path d="M18.1834 0.32019H27.201C28.4746 0.32019 29.2106 1.76659 28.4618 2.79059L26.0554 6.09939C25.6586 6.64339 25.6586 7.38579 26.0554 7.92979L28.4618 11.2386C29.2106 12.269 28.4746 13.709 27.201 13.709H18.1834C17.3258 13.709 16.6282 14.4066 16.6282 15.2642V16.5442C16.6282 17.4018 15.9306 18.0994 15.073 18.0994H4.78176C3.92416 18.0994 3.22656 17.4018 3.22656 16.5442V6.27219C3.22656 5.41459 3.92416 4.71699 4.78176 4.71699H15.0666C15.9242 4.71699 16.6218 4.01939 16.6218 3.16179V1.88179C16.6282 1.01779 17.3258 0.32019 18.1834 0.32019Z" fill="#FDDF7F"/>
<path d="M15.0663 18.432H4.78145C3.74465 18.432 2.90625 17.5872 2.90625 16.5568V6.272C2.90625 5.2352 3.75105 4.3968 4.78145 4.3968H15.0663C15.7511 4.3968 16.3015 3.84 16.3015 3.1616V1.8816C16.3079 0.8448 17.1463 0 18.1831 0H27.2007C27.9111 0 28.5511 0.3904 28.8711 1.024C29.1911 1.6576 29.1334 2.4064 28.7175 2.9824L26.3111 6.2912C25.9975 6.7264 25.9975 7.3088 26.3111 7.744L28.7175 11.0528C29.1334 11.6288 29.1975 12.3776 28.8711 13.0112C28.5511 13.6448 27.9111 14.0352 27.2007 14.0352H18.1831C17.4983 14.0352 16.9479 14.592 16.9479 15.2704V16.5504C16.9479 17.5872 16.1031 18.432 15.0663 18.432ZM4.78145 5.0368C4.09665 5.0368 3.54625 5.5936 3.54625 6.272V16.5568C3.54625 17.2416 4.10305 17.792 4.78145 17.792H15.0663C15.7511 17.792 16.3015 17.2352 16.3015 16.5568V15.2768C16.3015 14.24 17.1463 13.4016 18.1767 13.4016H27.1943C27.6679 13.4016 28.0839 13.152 28.2951 12.7232C28.5127 12.3008 28.4743 11.8208 28.1927 11.4368L25.7863 8.128C25.3063 7.4688 25.3063 6.5792 25.7863 5.92L28.1927 2.6112C28.4743 2.2272 28.5127 1.7472 28.2951 1.3248C28.0903 0.8896 27.6743 0.64 27.2007 0.64H18.1831C17.4983 0.64 16.9479 1.1968 16.9479 1.8752V3.1552C16.9479 4.192 16.1031 5.0304 15.0727 5.0304H4.78145V5.0368Z" fill="#1C1D21"/>
<path d="M16.6325 15.328C16.4533 15.328 16.3125 15.1872 16.3125 15.008V10.9824C16.3125 10.8032 16.4533 10.6624 16.6325 10.6624C16.8117 10.6624 16.9525 10.8032 16.9525 10.9824V15.008C16.9525 15.1872 16.8053 15.328 16.6325 15.328Z" fill="#1C1D21"/>
<path d="M16.6325 9.26711C16.4533 9.26711 16.3125 9.12631 16.3125 8.94711V8.39031C16.3125 8.21111 16.4533 8.07031 16.6325 8.07031C16.8117 8.07031 16.9525 8.21111 16.9525 8.39031V8.94711C16.9525 9.12631 16.8053 9.26711 16.6325 9.26711Z" fill="#1C1D21"/>
</g>
<defs>
<clipPath id="clip0_22103_3344">
<rect width="32" height="32" fill="white"/>
</clipPath>
</defs>
</svg>
