<svg width="248" height="181" viewBox="0 0 248 181" fill="none" xmlns="http://www.w3.org/2000/svg">
<g clip-path="url(#clip0_20577_4801)">
<path d="M247.642 179.119H0.358382C0.263333 179.119 0.172177 179.081 0.104967 179.014C0.0377577 178.946 0 178.855 0 178.759C0 178.664 0.0377577 178.572 0.104967 178.505C0.172177 178.437 0.263333 178.399 0.358382 178.399H247.642C247.737 178.399 247.828 178.437 247.895 178.505C247.962 178.572 248 178.664 248 178.759C248 178.855 247.962 178.946 247.895 179.014C247.828 179.081 247.737 179.119 247.642 179.119Z" fill="#CCCCCC"/>
<path d="M223.166 116.32H77.663C77.0452 116.32 76.4526 116.566 76.0158 117.005C75.5789 117.444 75.3335 118.04 75.3335 118.66C75.3335 119.281 75.5789 119.876 76.0158 120.315C76.4526 120.754 77.0452 121.001 77.663 121.001H81.7844V176.995C81.7844 177.616 82.0298 178.211 82.4667 178.65C82.9035 179.089 83.496 179.335 84.1138 179.335C84.7317 179.335 85.3242 179.089 85.761 178.65C86.1979 178.211 86.4433 177.616 86.4433 176.995L86.4787 121.001H214.027V176.995C214.027 177.616 214.273 178.211 214.709 178.65C215.146 179.089 215.739 179.335 216.357 179.335C216.974 179.335 217.567 179.089 218.004 178.65C218.441 178.211 218.686 177.616 218.686 176.995V122.235L219.364 121.001H223.166C223.784 121.001 224.376 120.754 224.813 120.315C225.25 119.876 225.495 119.281 225.495 118.66C225.495 118.04 225.25 117.444 224.813 117.005C224.376 116.566 223.784 116.32 223.166 116.32Z" fill="#CCCCCC"/>
<path d="M158.33 117.544H114.256C113.402 117.543 112.584 117.202 111.981 116.596C111.377 115.99 111.038 115.168 111.037 114.31V89.9289C111.038 89.0714 111.377 88.2493 111.981 87.643C112.584 87.0367 113.402 86.6956 114.256 86.6946H158.33C159.184 86.6956 160.002 87.0367 160.605 87.643C161.209 88.2493 161.548 89.0714 161.549 89.9289V114.31C161.548 115.168 161.209 115.99 160.605 116.596C160.002 117.202 159.184 117.543 158.33 117.544Z" fill="#3F3D56"/>
<path d="M158.33 89.184H114.256C114.06 89.1844 113.871 89.263 113.732 89.4027C113.593 89.5424 113.515 89.7318 113.515 89.9293V114.311C113.515 114.508 113.593 114.698 113.732 114.838C113.871 114.977 114.06 115.056 114.256 115.056H158.33C158.527 115.056 158.715 114.977 158.854 114.838C158.993 114.698 159.072 114.508 159.072 114.311V89.9293C159.072 89.7318 158.993 89.5424 158.854 89.4027C158.715 89.263 158.527 89.1844 158.33 89.184Z" fill="white"/>
<path d="M140.053 106.446C140.053 106.446 134.777 105.224 131.875 107.464C128.973 109.703 135.568 114.793 135.568 114.793L140.053 106.446Z" fill="#2F2E41"/>
<path d="M136.552 104.138C139.301 104.138 141.529 101.899 141.529 99.1371C141.529 96.3754 139.301 94.1365 136.552 94.1365C133.804 94.1365 131.575 96.3754 131.575 99.1371C131.575 101.899 133.804 104.138 136.552 104.138Z" fill="#A0616A"/>
<path d="M132.703 92.1171C133.035 91.5511 133.516 91.0883 134.093 90.7797C134.671 90.4712 135.321 90.3289 135.974 90.3686C136.657 90.4546 137.323 90.642 137.951 90.9245L141.204 92.1997C142.046 92.5297 142.968 92.9338 143.333 93.7643C143.672 94.5351 143.419 95.4253 143.163 96.2278L141.946 100.042C141.811 99.179 141.58 98.3337 141.256 97.5225C140.927 96.7059 140.333 96.0251 139.57 95.591C138.725 95.1554 137.729 95.1644 136.78 95.2103C135.437 95.2753 133.976 95.447 133.021 96.3993C132.515 96.94 132.171 97.6142 132.031 98.3435C131.892 99.0688 131.823 99.8057 131.823 100.544C131.272 99.5926 130.808 98.5928 130.436 97.5571C130.13 96.7859 129.956 95.9685 129.921 95.1392C129.889 94.3028 130.165 93.4839 130.697 92.8393C130.966 92.5243 131.318 92.2913 131.713 92.1666C132.107 92.0418 132.529 92.0303 132.929 92.1332L132.703 92.1171Z" fill="#2F2E41"/>
<path d="M148.436 110.782C148.389 110.613 148.294 110.462 148.162 110.347C148.03 110.232 147.867 110.159 147.694 110.137C147.683 110.129 147.671 110.122 147.658 110.116L140.229 105.932C140.016 105.813 139.767 105.78 139.531 105.841C139.296 105.902 139.093 106.052 138.964 106.259L136.932 109.565L133.872 106.49L133.823 106.441C133.666 106.283 133.458 106.186 133.237 106.166C133.016 106.147 132.795 106.206 132.613 106.334L126.507 110.631C126.496 110.631 126.485 110.634 126.475 110.634C126.182 110.683 125.915 110.831 125.718 111.053C125.52 111.275 125.404 111.558 125.389 111.855L125.231 115.056H149.615L148.436 110.782Z" fill="#518672"/>
<path d="M162.045 114.559H157.34C157.34 114.427 157.288 114.3 157.195 114.207C157.102 114.114 156.976 114.061 156.845 114.061H155.359C155.228 114.061 155.102 114.114 155.009 114.207C154.916 114.3 154.864 114.427 154.864 114.559H153.378C153.378 114.427 153.326 114.3 153.233 114.207C153.14 114.114 153.014 114.061 152.883 114.061H151.397C151.266 114.061 151.14 114.114 151.047 114.207C150.954 114.3 150.902 114.427 150.902 114.559H149.416C149.416 114.427 149.364 114.3 149.271 114.207C149.179 114.114 149.053 114.061 148.921 114.061H147.436C147.304 114.061 147.178 114.114 147.085 114.207C146.993 114.3 146.94 114.427 146.94 114.559H145.455C145.455 114.427 145.403 114.3 145.31 114.207C145.217 114.114 145.091 114.061 144.959 114.061H143.474C143.342 114.061 143.217 114.114 143.124 114.207C143.031 114.3 142.979 114.427 142.979 114.559H141.493C141.493 114.427 141.441 114.3 141.348 114.207C141.255 114.114 141.129 114.061 140.998 114.061H139.512C139.381 114.061 139.255 114.114 139.162 114.207C139.069 114.3 139.017 114.427 139.017 114.559H137.531C137.531 114.427 137.479 114.3 137.386 114.207C137.293 114.114 137.167 114.061 137.036 114.061H135.55C135.419 114.061 135.293 114.114 135.2 114.207C135.107 114.3 135.055 114.427 135.055 114.559H133.569C133.569 114.427 133.517 114.3 133.424 114.207C133.332 114.114 133.206 114.061 133.074 114.061H131.589C131.457 114.061 131.331 114.114 131.238 114.207C131.146 114.3 131.093 114.427 131.093 114.559H129.608C129.608 114.427 129.556 114.3 129.463 114.207C129.37 114.114 129.244 114.061 129.113 114.061H127.627C127.496 114.061 127.37 114.114 127.277 114.207C127.184 114.3 127.132 114.427 127.132 114.559H125.646C125.646 114.427 125.594 114.3 125.501 114.207C125.408 114.114 125.282 114.061 125.151 114.061H123.665C123.534 114.061 123.408 114.114 123.315 114.207C123.222 114.3 123.17 114.427 123.17 114.559H121.684C121.684 114.427 121.632 114.3 121.539 114.207C121.446 114.114 121.32 114.061 121.189 114.061H119.703C119.572 114.061 119.446 114.114 119.353 114.207C119.26 114.3 119.208 114.427 119.208 114.559H117.722C117.722 114.427 117.67 114.3 117.577 114.207C117.485 114.114 117.359 114.061 117.227 114.061H115.742C115.61 114.061 115.484 114.114 115.391 114.207C115.299 114.3 115.246 114.427 115.246 114.559H110.542C110.148 114.559 109.771 114.717 109.493 114.997C109.215 115.277 109.058 115.656 109.058 116.052C109.058 116.447 109.215 116.826 109.493 117.106C109.771 117.386 110.148 117.544 110.542 117.544H162.045C162.439 117.544 162.816 117.387 163.095 117.107C163.374 116.827 163.53 116.447 163.53 116.052C163.53 115.656 163.374 115.276 163.095 114.996C162.816 114.716 162.439 114.559 162.045 114.559Z" fill="#3F3D56"/>
<path d="M102.884 105.89V115.802H78.1695C77.5073 115.825 76.8473 115.714 76.2288 115.476C75.6102 115.237 75.0458 114.876 74.5692 114.413C74.0927 113.951 73.7136 113.396 73.4548 112.784C73.1959 112.171 73.0625 111.512 73.0625 110.846C73.0625 110.181 73.1959 109.522 73.4548 108.909C73.7136 108.296 74.0927 107.742 74.5692 107.279C75.0458 106.817 75.6102 106.456 76.2288 106.217C76.8473 105.978 77.5073 105.867 78.1695 105.89H102.884Z" fill="#F2F2F2"/>
<path d="M103.491 115.725C103.49 115.827 103.451 115.924 103.379 115.995C103.308 116.067 103.212 116.107 103.111 116.107H77.7285C76.3499 116.107 75.0278 115.556 74.053 114.577C73.0782 113.598 72.5305 112.269 72.5305 110.884C72.5305 109.499 73.0782 108.17 74.053 107.191C75.0278 106.212 76.3499 105.661 77.7285 105.661H103.111C103.212 105.661 103.308 105.701 103.379 105.773C103.451 105.844 103.491 105.941 103.491 106.043C103.491 106.144 103.451 106.241 103.379 106.312C103.308 106.384 103.212 106.424 103.111 106.424H77.7285C76.5518 106.425 75.4237 106.895 74.5921 107.732C73.7605 108.568 73.2933 109.702 73.2933 110.884C73.2933 112.066 73.7605 113.2 74.5921 114.036C75.4237 114.873 76.5518 115.343 77.7285 115.344H103.111C103.212 115.344 103.308 115.384 103.379 115.456C103.45 115.527 103.49 115.624 103.491 115.725Z" fill="#518672"/>
<path d="M102.883 108.177H76.3245C76.3144 108.177 76.3045 108.176 76.2953 108.172C76.286 108.168 76.2776 108.162 76.2705 108.155C76.2634 108.148 76.2577 108.14 76.2539 108.13C76.25 108.121 76.248 108.111 76.248 108.101C76.248 108.091 76.25 108.081 76.2539 108.072C76.2577 108.063 76.2634 108.054 76.2705 108.047C76.2776 108.04 76.286 108.034 76.2953 108.031C76.3045 108.027 76.3144 108.025 76.3245 108.025H102.883C102.903 108.025 102.922 108.033 102.937 108.047C102.951 108.062 102.959 108.081 102.959 108.101C102.959 108.121 102.951 108.141 102.937 108.155C102.922 108.169 102.903 108.177 102.883 108.177Z" fill="#CCCCCC"/>
<path d="M102.883 110.007H76.3245C76.3144 110.007 76.3045 110.005 76.2953 110.001C76.286 109.998 76.2776 109.992 76.2705 109.985C76.2634 109.978 76.2577 109.969 76.2539 109.96C76.25 109.951 76.248 109.941 76.248 109.931C76.248 109.921 76.25 109.911 76.2539 109.902C76.2577 109.892 76.2634 109.884 76.2705 109.877C76.2776 109.87 76.286 109.864 76.2953 109.86C76.3045 109.856 76.3144 109.855 76.3245 109.855H102.883C102.903 109.855 102.922 109.863 102.937 109.877C102.951 109.891 102.959 109.911 102.959 109.931C102.959 109.951 102.951 109.97 102.937 109.985C102.922 109.999 102.903 110.007 102.883 110.007Z" fill="#CCCCCC"/>
<path d="M102.883 111.837H76.3245C76.3144 111.838 76.3045 111.836 76.2953 111.832C76.286 111.828 76.2776 111.822 76.2705 111.815C76.2634 111.808 76.2577 111.8 76.2539 111.791C76.25 111.781 76.248 111.771 76.248 111.761C76.248 111.751 76.25 111.741 76.2539 111.732C76.2577 111.723 76.2634 111.714 76.2705 111.707C76.2776 111.7 76.286 111.694 76.2953 111.691C76.3045 111.687 76.3144 111.685 76.3245 111.685H102.883C102.903 111.685 102.922 111.693 102.937 111.708C102.951 111.722 102.959 111.741 102.959 111.761C102.959 111.781 102.951 111.801 102.937 111.815C102.922 111.829 102.903 111.837 102.883 111.837Z" fill="#CCCCCC"/>
<path d="M102.883 113.667H76.3245C76.3144 113.667 76.3045 113.665 76.2953 113.662C76.286 113.658 76.2776 113.652 76.2705 113.645C76.2634 113.638 76.2577 113.63 76.2539 113.62C76.25 113.611 76.248 113.601 76.248 113.591C76.248 113.581 76.25 113.571 76.2539 113.562C76.2577 113.552 76.2634 113.544 76.2705 113.537C76.2776 113.53 76.286 113.524 76.2953 113.52C76.3045 113.517 76.3144 113.515 76.3245 113.515H102.883C102.903 113.515 102.922 113.523 102.937 113.537C102.951 113.552 102.959 113.571 102.959 113.591C102.959 113.611 102.951 113.63 102.937 113.645C102.922 113.659 102.903 113.667 102.883 113.667Z" fill="#CCCCCC"/>
<path d="M98.2245 95.4473V105.359H73.5097C72.8475 105.382 72.1875 105.271 71.569 105.033C70.9504 104.794 70.386 104.433 69.9095 103.97C69.4329 103.508 69.0539 102.953 68.795 102.341C68.5361 101.728 68.4027 101.069 68.4027 100.403C68.4027 99.7375 68.5361 99.0786 68.795 98.4657C69.0539 97.8529 69.4329 97.2988 69.9095 96.8363C70.386 96.3738 70.9504 96.0125 71.569 95.7739C72.1875 95.5352 72.8475 95.4242 73.5097 95.4473H98.2245Z" fill="#F2F2F2"/>
<path d="M98.8321 105.283C98.832 105.384 98.7921 105.481 98.7209 105.553C98.6498 105.624 98.5533 105.664 98.4527 105.664H73.07C72.3874 105.664 71.7115 105.529 71.0808 105.267C70.4502 105.004 69.8772 104.62 69.3945 104.135C68.9118 103.65 68.529 103.074 68.2677 102.44C68.0065 101.807 67.8721 101.127 67.8721 100.442C67.8721 99.7558 68.0065 99.0766 68.2677 98.443C68.529 97.8093 68.9118 97.2336 69.3945 96.7486C69.8772 96.2637 70.4502 95.8789 71.0808 95.6165C71.7115 95.354 72.3874 95.2189 73.07 95.2189H98.4527C98.5533 95.2189 98.6498 95.2591 98.7209 95.3306C98.7921 95.4021 98.8321 95.499 98.8321 95.6002C98.8321 95.7013 98.7921 95.7982 98.7209 95.8697C98.6498 95.9412 98.5533 95.9814 98.4527 95.9814H73.07C71.8934 95.9824 70.7653 96.4528 69.9337 97.2892C69.102 98.1255 68.6349 99.2594 68.6349 100.442C68.6349 101.624 69.102 102.758 69.9337 103.594C70.7653 104.43 71.8934 104.901 73.07 104.902H98.4527C98.5533 104.902 98.6498 104.942 98.7209 105.014C98.792 105.085 98.832 105.182 98.8321 105.283Z" fill="#3F3D56"/>
<path d="M98.2248 97.735H71.666C71.656 97.7351 71.6461 97.7332 71.6368 97.7294C71.6275 97.7256 71.6191 97.7199 71.612 97.7129C71.6049 97.7058 71.5993 97.6974 71.5954 97.6881C71.5916 97.6788 71.5896 97.6688 71.5896 97.6588C71.5896 97.6487 71.5916 97.6388 71.5954 97.6295C71.5993 97.6202 71.6049 97.6118 71.612 97.6047C71.6191 97.5976 71.6275 97.592 71.6368 97.5882C71.6461 97.5844 71.656 97.5825 71.666 97.5825H98.2248C98.2449 97.5827 98.264 97.5908 98.2782 97.605C98.2923 97.6193 98.3002 97.6386 98.3002 97.6588C98.3002 97.6789 98.2923 97.6982 98.2782 97.7125C98.264 97.7268 98.2449 97.7349 98.2248 97.735Z" fill="#CCCCCC"/>
<path d="M98.2248 99.5647H71.666C71.656 99.5648 71.6461 99.5629 71.6368 99.5591C71.6275 99.5553 71.6191 99.5497 71.612 99.5426C71.6049 99.5355 71.5993 99.5271 71.5954 99.5178C71.5916 99.5085 71.5896 99.4985 71.5896 99.4885C71.5896 99.4784 71.5916 99.4685 71.5954 99.4592C71.5993 99.4499 71.6049 99.4415 71.612 99.4344C71.6191 99.4273 71.6275 99.4217 71.6368 99.4179C71.6461 99.4141 71.656 99.4122 71.666 99.4122H98.2248C98.2449 99.4124 98.264 99.4205 98.2782 99.4347C98.2923 99.449 98.3002 99.4683 98.3002 99.4885C98.3002 99.5086 98.2923 99.5279 98.2782 99.5422C98.264 99.5565 98.2449 99.5646 98.2248 99.5647Z" fill="#CCCCCC"/>
<path d="M98.2248 101.394H71.666C71.656 101.394 71.6461 101.393 71.6368 101.389C71.6275 101.385 71.6191 101.379 71.612 101.372C71.6049 101.365 71.5993 101.357 71.5954 101.347C71.5916 101.338 71.5896 101.328 71.5896 101.318C71.5896 101.308 71.5916 101.298 71.5954 101.289C71.5993 101.28 71.6049 101.271 71.612 101.264C71.6191 101.257 71.6275 101.251 71.6368 101.248C71.6461 101.244 71.656 101.242 71.666 101.242H98.2248C98.2449 101.242 98.264 101.25 98.2782 101.264C98.2923 101.279 98.3002 101.298 98.3002 101.318C98.3002 101.338 98.2923 101.358 98.2782 101.372C98.264 101.386 98.2449 101.394 98.2248 101.394Z" fill="#CCCCCC"/>
<path d="M98.2248 103.225H71.666C71.656 103.225 71.6461 103.223 71.6368 103.219C71.6275 103.215 71.6191 103.21 71.612 103.203C71.6049 103.196 71.5993 103.187 71.5954 103.178C71.5916 103.169 71.5896 103.159 71.5896 103.149C71.5896 103.139 71.5916 103.129 71.5954 103.119C71.5993 103.11 71.6049 103.102 71.612 103.094C71.6191 103.087 71.6275 103.082 71.6368 103.078C71.6461 103.074 71.656 103.072 71.666 103.072H98.2248C98.2449 103.072 98.264 103.081 98.2782 103.095C98.2923 103.109 98.3002 103.128 98.3002 103.149C98.3002 103.169 98.2923 103.188 98.2782 103.202C98.264 103.217 98.2449 103.225 98.2248 103.225Z" fill="#CCCCCC"/>
<path d="M126.975 151.032V142.39C126.975 142.008 126.824 141.642 126.555 141.372C126.286 141.102 125.922 140.95 125.541 140.95H92.9288C92.5486 140.95 92.1839 141.102 91.9151 141.372C91.6463 141.642 91.4952 142.008 91.4952 142.39V151.032H126.975Z" fill="#CCCCCC"/>
<path d="M126.975 154.273H91.4952V165.436H126.975V154.273Z" fill="#CCCCCC"/>
<path d="M91.4952 168.677V177.319C91.4952 177.701 91.6463 178.067 91.9151 178.337C92.1839 178.607 92.5486 178.759 92.9288 178.759H125.541C125.922 178.759 126.286 178.607 126.555 178.337C126.824 178.067 126.975 177.701 126.975 177.319V168.677H91.4952Z" fill="#CCCCCC"/>
<path d="M109.056 147.432C109.65 147.432 110.131 146.948 110.131 146.352C110.131 145.755 109.65 145.271 109.056 145.271C108.463 145.271 107.981 145.755 107.981 146.352C107.981 146.948 108.463 147.432 109.056 147.432Z" fill="white"/>
<path d="M109.056 161.835C109.65 161.835 110.131 161.351 110.131 160.755C110.131 160.158 109.65 159.674 109.056 159.674C108.463 159.674 107.981 160.158 107.981 160.755C107.981 161.351 108.463 161.835 109.056 161.835Z" fill="white"/>
<path d="M109.115 175.934C109.708 175.934 110.19 175.451 110.19 174.854C110.19 174.257 109.708 173.774 109.115 173.774C108.521 173.774 108.039 174.257 108.039 174.854C108.039 175.451 108.521 175.934 109.115 175.934Z" fill="white"/>
<path d="M122.953 131.096V141.008H98.238C97.5758 141.031 96.9158 140.92 96.2972 140.681C95.6787 140.443 95.1143 140.081 94.6377 139.619C94.1611 139.156 93.7821 138.602 93.5233 137.989C93.2644 137.377 93.131 136.718 93.131 136.052C93.131 135.386 93.2644 134.727 93.5233 134.115C93.7821 133.502 94.1611 132.948 94.6377 132.485C95.1143 132.023 95.6787 131.661 96.2972 131.423C96.9158 131.184 97.5758 131.073 98.238 131.096H122.953Z" fill="#F2F2F2"/>
<path d="M123.561 140.932C123.561 141.033 123.521 141.13 123.449 141.201C123.378 141.273 123.282 141.313 123.181 141.313H97.7986C97.1156 141.314 96.4392 141.179 95.8081 140.917C95.1769 140.655 94.6034 140.27 94.1203 139.785C93.6371 139.3 93.2539 138.724 92.9924 138.09C92.7309 137.456 92.5963 136.777 92.5963 136.09C92.5963 135.404 92.7309 134.725 92.9924 134.091C93.2539 133.457 93.6371 132.881 94.1203 132.396C94.6034 131.911 95.1769 131.526 95.8081 131.264C96.4392 131.002 97.1156 130.867 97.7986 130.868H123.181C123.282 130.868 123.378 130.908 123.449 130.979C123.521 131.051 123.561 131.148 123.561 131.249C123.561 131.35 123.521 131.447 123.449 131.519C123.378 131.59 123.282 131.63 123.181 131.63H97.7986C96.6219 131.631 95.4938 132.102 94.6622 132.938C93.8306 133.774 93.3634 134.908 93.3634 136.09C93.3634 137.273 93.8306 138.407 94.6622 139.243C95.4938 140.079 96.6219 140.55 97.7986 140.551H123.181C123.282 140.551 123.378 140.591 123.449 140.662C123.521 140.734 123.561 140.831 123.561 140.932Z" fill="#3F3D56"/>
<path d="M122.953 133.384H96.3943C96.3843 133.384 96.3743 133.382 96.3651 133.378C96.3558 133.374 96.3474 133.369 96.3403 133.362C96.3332 133.355 96.3275 133.346 96.3237 133.337C96.3198 133.328 96.3179 133.318 96.3179 133.308C96.3179 133.298 96.3198 133.288 96.3237 133.278C96.3275 133.269 96.3332 133.261 96.3403 133.253C96.3474 133.246 96.3558 133.241 96.3651 133.237C96.3743 133.233 96.3843 133.231 96.3943 133.231H122.953C122.973 133.231 122.992 133.24 123.006 133.254C123.021 133.268 123.028 133.287 123.028 133.308C123.028 133.328 123.021 133.347 123.006 133.361C122.992 133.376 122.973 133.384 122.953 133.384Z" fill="#CCCCCC"/>
<path d="M122.953 135.214H96.3943C96.3843 135.214 96.3743 135.212 96.3651 135.208C96.3558 135.204 96.3474 135.198 96.3403 135.191C96.3332 135.184 96.3275 135.176 96.3237 135.167C96.3198 135.157 96.3179 135.147 96.3179 135.137C96.3179 135.127 96.3198 135.117 96.3237 135.108C96.3275 135.099 96.3332 135.09 96.3403 135.083C96.3474 135.076 96.3558 135.07 96.3651 135.067C96.3743 135.063 96.3843 135.061 96.3943 135.061H122.953C122.973 135.061 122.992 135.069 123.006 135.084C123.021 135.098 123.028 135.117 123.028 135.137C123.028 135.157 123.021 135.177 123.006 135.191C122.992 135.205 122.973 135.213 122.953 135.214Z" fill="#CCCCCC"/>
<path d="M122.953 137.043H96.3943C96.3843 137.043 96.3743 137.041 96.3651 137.038C96.3558 137.034 96.3474 137.028 96.3403 137.021C96.3332 137.014 96.3275 137.006 96.3237 136.996C96.3198 136.987 96.3179 136.977 96.3179 136.967C96.3179 136.957 96.3198 136.947 96.3237 136.938C96.3275 136.928 96.3332 136.92 96.3403 136.913C96.3474 136.906 96.3558 136.9 96.3651 136.896C96.3743 136.893 96.3843 136.891 96.3943 136.891H122.953C122.973 136.891 122.992 136.899 123.006 136.913C123.021 136.928 123.028 136.947 123.028 136.967C123.028 136.987 123.021 137.006 123.006 137.021C122.992 137.035 122.973 137.043 122.953 137.043Z" fill="#CCCCCC"/>
<path d="M122.953 138.873H96.3943C96.3843 138.873 96.3743 138.871 96.3651 138.867C96.3558 138.863 96.3474 138.858 96.3403 138.851C96.3332 138.844 96.3275 138.835 96.3237 138.826C96.3198 138.817 96.3179 138.807 96.3179 138.797C96.3179 138.787 96.3198 138.777 96.3237 138.767C96.3275 138.758 96.3332 138.75 96.3403 138.743C96.3474 138.736 96.3558 138.73 96.3651 138.726C96.3743 138.722 96.3843 138.72 96.3943 138.72H122.953C122.973 138.721 122.992 138.729 123.006 138.743C123.021 138.757 123.028 138.777 123.028 138.797C123.028 138.817 123.021 138.836 123.006 138.85C122.992 138.865 122.973 138.873 122.953 138.873Z" fill="#CCCCCC"/>
<path d="M89.6345 66.404V3.20839C89.6353 2.49033 89.9196 1.80192 90.4249 1.29417C90.9303 0.786429 91.6154 0.500817 92.3301 0.5H142.048C142.762 0.500822 143.448 0.786435 143.953 1.29418C144.458 1.80192 144.743 2.49033 144.743 3.20839V66.404C144.743 67.122 144.458 67.8104 143.953 68.3182C143.448 68.8259 142.762 69.1115 142.048 69.1123H92.3301C91.6154 69.1115 90.9303 68.8259 90.4249 68.3182C89.9196 67.8104 89.6353 67.122 89.6345 66.404ZM92.3301 1.10186C91.7742 1.10249 91.2413 1.32463 90.8483 1.71954C90.4552 2.11445 90.2341 2.64989 90.2335 3.20839V66.404C90.2341 66.9625 90.4552 67.4979 90.8483 67.8928C91.2413 68.2877 91.7742 68.5099 92.3301 68.5105H142.048C142.604 68.5099 143.137 68.2877 143.53 67.8928C143.923 67.4979 144.144 66.9625 144.144 66.404V3.20839C144.144 2.64989 143.923 2.11445 143.53 1.71954C143.137 1.32463 142.604 1.10249 142.048 1.10186H92.3301Z" fill="#E6E6E6"/>
<path d="M119.977 29.5224V16.5464C119.977 16.1874 120.119 15.8432 120.372 15.5893C120.625 15.3354 120.967 15.1926 121.325 15.1922H132.268C132.626 15.1926 132.968 15.3354 133.221 15.5893C133.474 15.8432 133.616 16.1874 133.616 16.5464V29.5224C133.616 29.8815 133.474 30.2257 133.221 30.4796C132.968 30.7334 132.626 30.8762 132.268 30.8766H121.325C120.967 30.8762 120.625 30.7334 120.372 30.4796C120.119 30.2257 119.977 29.8815 119.977 29.5224Z" fill="#518672"/>
<path d="M98.7119 35.5408V22.5648C98.7123 22.2057 98.8544 21.8615 99.1071 21.6076C99.3598 21.3538 99.7024 21.211 100.06 21.2106H111.004C111.361 21.211 111.704 21.3538 111.956 21.6076C112.209 21.8615 112.351 22.2057 112.351 22.5648V35.5408C112.351 35.8998 112.209 36.2441 111.956 36.4979C111.704 36.7518 111.361 36.8946 111.004 36.895H100.06C99.7024 36.8946 99.3598 36.7518 99.1071 36.4979C98.8544 36.244 98.7123 35.8998 98.7119 35.5408Z" fill="#CCCCCC"/>
<path d="M115.784 53.8978V40.9218C115.785 40.5627 115.927 40.2185 116.179 39.9646C116.432 39.7108 116.775 39.568 117.132 39.5676H128.076C128.433 39.568 128.776 39.7108 129.028 39.9646C129.281 40.2185 129.423 40.5627 129.424 40.9218V53.8978C129.423 54.2568 129.281 54.601 129.028 54.8549C128.776 55.1088 128.433 55.2516 128.076 55.252H117.132C116.775 55.2516 116.432 55.1088 116.179 54.8549C115.927 54.601 115.785 54.2568 115.784 53.8978Z" fill="#FF6584"/>
<path d="M181.184 113.223H169.924C169.817 113.223 169.711 113.248 169.616 113.295L166.774 114.725C166.68 114.765 166.6 114.831 166.544 114.917C166.488 115.002 166.458 115.102 166.458 115.204C166.458 115.306 166.488 115.406 166.544 115.491C166.6 115.576 166.68 115.643 166.774 115.683L169.616 117.112C169.711 117.16 169.817 117.184 169.924 117.184H181.184C181.339 117.193 181.492 117.14 181.608 117.037C181.725 116.934 181.797 116.789 181.808 116.633V113.774C181.797 113.618 181.725 113.473 181.608 113.37C181.492 113.267 181.339 113.214 181.184 113.223Z" fill="#3F3D56"/>
<path d="M181.808 113.774V116.633C181.797 116.789 181.725 116.934 181.609 117.037C181.492 117.14 181.339 117.193 181.184 117.184H178.941V113.223H181.184C181.339 113.214 181.492 113.267 181.609 113.37C181.725 113.473 181.797 113.618 181.808 113.774Z" fill="#518672"/>
<path d="M181.1 91.8339C181.61 91.6128 182.161 91.5024 182.717 91.51C183.272 91.5176 183.82 91.6431 184.323 91.8782C184.827 92.1133 185.276 92.4526 185.64 92.8741C186.004 93.2956 186.276 93.7896 186.437 94.3238C186.487 94.4932 186.525 94.6658 186.551 94.8405L202.298 102.686L205.942 100.26L210.476 105.505L204.912 110.045C204.243 110.587 203.418 110.898 202.559 110.931C201.7 110.964 200.854 110.718 200.145 110.23L184.169 99.129C184.05 99.1797 183.929 99.2242 183.805 99.2623C183.273 99.4239 182.714 99.4708 182.163 99.3998C181.612 99.3289 181.082 99.1418 180.608 98.8508C180.133 98.5597 179.726 98.1713 179.412 97.711C179.097 97.2507 178.884 96.7288 178.784 96.1797C178.755 96.0203 178.735 95.8592 178.726 95.6973C178.681 94.8868 178.885 94.082 179.31 93.3913C179.734 92.7006 180.359 92.1571 181.1 91.8339Z" fill="#FFB8B8"/>
<path d="M213.896 140.139H196.69C196.69 140.636 178.958 141.04 178.958 141.04C178.679 141.25 178.426 141.492 178.202 141.76C177.528 142.567 177.16 143.587 177.162 144.64V145.361C177.163 146.554 177.635 147.699 178.475 148.543C179.315 149.387 180.454 149.861 181.642 149.862H213.896C215.084 149.861 216.223 149.386 217.063 148.542C217.903 147.698 218.375 146.554 218.376 145.361V144.64C218.374 143.447 217.902 142.303 217.062 141.46C216.222 140.616 215.084 140.141 213.896 140.139Z" fill="#3F3D56"/>
<path d="M195.18 179.93H199.839V149.683H195.18V179.93Z" fill="#3F3D56"/>
<path d="M181.921 179.766C181.921 180.272 188.981 179.962 197.69 179.962C206.399 179.962 213.459 180.272 213.459 179.766C213.459 179.261 206.399 175.25 197.69 175.25C188.981 175.25 181.921 179.261 181.921 179.766Z" fill="#3F3D56"/>
<path d="M186.126 176.221L181.733 176.22L179.642 164.771L186.127 164.771L186.126 176.221Z" fill="#FFB8B8"/>
<path d="M187.248 180.5L173.081 180.499V180.319C173.081 179.592 173.223 178.871 173.5 178.199C173.778 177.527 174.184 176.916 174.696 176.402C175.208 175.887 175.816 175.479 176.485 175.201C177.154 174.922 177.871 174.779 178.595 174.779H178.595L187.248 174.779L187.248 180.5Z" fill="#2F2E41"/>
<path d="M179.555 169.12L170.796 149.385C170.065 147.721 169.984 145.842 170.57 144.122C171.155 142.401 172.365 140.965 173.957 140.1L192.956 129.864L201.625 129.123L209.623 128.392L209.68 128.491C209.754 128.616 211.473 131.6 210.311 134.872C209.429 137.354 207.136 139.293 203.495 140.634C194.996 143.765 185.179 146.441 181.352 147.446C181.183 147.49 181.025 147.569 180.888 147.678C180.752 147.787 180.64 147.924 180.56 148.08C180.479 148.234 180.432 148.403 180.419 148.576C180.407 148.75 180.431 148.924 180.489 149.088L188.627 167.458C188.712 167.691 188.742 167.94 188.716 168.187C188.69 168.433 188.608 168.671 188.476 168.881C188.344 169.09 188.166 169.267 187.955 169.397C187.745 169.526 187.508 169.606 187.262 169.629L181.181 170.073C181.13 170.078 181.078 170.081 181.027 170.081C180.716 170.081 180.411 169.99 180.15 169.82C179.889 169.649 179.682 169.406 179.555 169.12Z" fill="#2F2E41"/>
<path d="M188.277 176.221L183.883 176.22L181.793 164.771L188.277 164.771L188.277 176.221Z" fill="#FFB8B8"/>
<path d="M189.397 180.5L175.23 180.499V180.319C175.23 179.592 175.373 178.871 175.65 178.199C175.927 177.527 176.333 176.916 176.845 176.402C177.357 175.887 177.965 175.479 178.634 175.201C179.303 174.922 180.02 174.779 180.744 174.779H180.745L189.397 174.779L189.397 180.5Z" fill="#2F2E41"/>
<path d="M182.063 170.201L173.304 150.465C172.573 148.802 172.492 146.923 173.078 145.202C173.663 143.482 174.873 142.046 176.465 141.181L195.464 130.944L204.133 130.203L212.13 129.473L212.188 129.571C212.262 129.696 213.981 132.68 212.819 135.952C211.937 138.434 209.644 140.373 206.003 141.715C197.504 144.846 187.686 147.522 183.86 148.527C183.691 148.57 183.533 148.649 183.396 148.758C183.26 148.867 183.148 149.005 183.068 149.16C182.987 149.314 182.939 149.483 182.927 149.657C182.915 149.83 182.939 150.004 182.997 150.168L191.135 168.538C191.22 168.771 191.25 169.02 191.224 169.267C191.198 169.514 191.116 169.751 190.984 169.961C190.852 170.171 190.674 170.347 190.463 170.477C190.253 170.607 190.015 170.686 189.77 170.709L183.689 171.154C183.637 171.159 183.586 171.161 183.535 171.161C183.223 171.161 182.919 171.07 182.658 170.9C182.396 170.73 182.19 170.487 182.063 170.201Z" fill="#2F2E41"/>
<path d="M177.698 109.911C174.018 104.991 171.108 99.535 169.07 93.7312C168.952 93.384 168.96 93.006 169.094 92.6645C169.227 92.323 169.477 92.04 169.798 91.8661L182.394 85.0851C182.597 84.9745 182.824 84.9122 183.055 84.9027C183.286 84.8933 183.517 84.937 183.729 85.0306C183.945 85.1249 184.136 85.2675 184.289 85.4474C184.442 85.6274 184.552 85.84 184.611 86.0691C186.077 91.6619 188.833 96.8293 192.655 101.153C192.812 101.33 192.928 101.539 192.992 101.767C193.057 101.994 193.069 102.234 193.027 102.467C192.987 102.696 192.896 102.913 192.76 103.101C192.624 103.289 192.447 103.444 192.242 103.553L179.647 110.334C179.325 110.507 178.952 110.559 178.595 110.482C178.238 110.404 177.921 110.202 177.698 109.911Z" fill="#CCCCCC"/>
<path d="M178.558 109.262C178.625 109.347 178.721 109.405 178.827 109.427C178.933 109.449 179.043 109.434 179.139 109.383L191.735 102.601C191.796 102.569 191.849 102.523 191.889 102.467C191.93 102.411 191.957 102.347 191.968 102.278C191.982 102.206 191.978 102.132 191.958 102.061C191.937 101.991 191.901 101.926 191.852 101.872C187.917 97.4206 185.08 92.1009 183.571 86.3433C183.553 86.2722 183.52 86.2061 183.473 86.1502C183.425 86.0943 183.366 86.0501 183.299 86.0211C183.236 85.9927 183.167 85.9794 183.098 85.9823C183.029 85.9852 182.962 86.0041 182.901 86.0376L170.306 92.8186C170.211 92.8704 170.136 92.9541 170.096 93.0551C170.055 93.1562 170.051 93.2683 170.084 93.3721C172.085 99.072 174.943 104.431 178.558 109.262Z" fill="white"/>
<path d="M219.541 108.102L209.677 111.869L207.269 105.147C206.949 104.255 206.953 103.277 207.281 102.388C207.609 101.498 208.24 100.754 209.061 100.286C209.892 99.8129 210.864 99.654 211.801 99.8378C212.739 100.022 213.58 100.536 214.173 101.289L219.541 108.102Z" fill="#518672"/>
<path d="M194.452 134.734C194.244 134.587 194.07 134.396 193.941 134.176C193.813 133.956 193.732 133.71 193.705 133.456C192.442 121.606 193.322 112.332 196.395 105.105C196.936 103.858 197.752 102.751 198.78 101.867C199.809 100.982 201.023 100.344 202.332 99.9988L210.306 99.5944L210.347 99.6145C212.147 100.5 213.614 101.945 214.532 103.734C215.45 105.523 215.77 107.562 215.443 109.549C212.879 116.341 210.731 123.413 212.369 129.118C212.438 129.357 212.458 129.607 212.428 129.853C212.398 130.1 212.319 130.338 212.196 130.553C212.076 130.76 211.915 130.941 211.723 131.084C211.531 131.227 211.312 131.329 211.079 131.384L195.891 135.014C195.645 135.073 195.39 135.078 195.141 135.03C194.893 134.982 194.658 134.881 194.452 134.734Z" fill="#518672"/>
<path d="M207.645 96.602C212.506 96.602 216.447 92.6423 216.447 87.7578C216.447 82.8734 212.506 78.9137 207.645 78.9137C202.783 78.9137 198.843 82.8734 198.843 87.7578C198.843 92.6423 202.783 96.602 207.645 96.602Z" fill="#FFB8B8"/>
<path d="M183.221 94.7625L176.361 97.8051C176.1 97.9204 175.804 97.9271 175.538 97.8236C175.272 97.7201 175.058 97.5149 174.943 97.253L174.773 96.8668C174.658 96.6047 174.652 96.3075 174.755 96.0404C174.858 95.7734 175.062 95.5583 175.323 95.4423L182.183 92.3997C182.443 92.2844 182.739 92.2777 183.005 92.3812C183.271 92.4847 183.485 92.6899 183.6 92.9517L183.77 93.3379C183.885 93.6001 183.891 93.8973 183.788 94.1644C183.685 94.4314 183.481 94.6465 183.221 94.7625Z" fill="#CCCCCC"/>
<path d="M185.729 99.4438L178.869 102.486C178.608 102.602 178.312 102.608 178.046 102.505C177.78 102.401 177.566 102.196 177.451 101.934L177.281 101.548C177.166 101.286 177.16 100.989 177.263 100.722C177.366 100.455 177.57 100.24 177.831 100.124L184.691 97.0811C184.951 96.9657 185.247 96.959 185.513 97.0625C185.779 97.166 185.993 97.3712 186.108 97.6331L186.278 98.0193C186.393 98.2814 186.399 98.5786 186.296 98.8457C186.193 99.1127 185.989 99.3278 185.729 99.4438Z" fill="#CCCCCC"/>
<path d="M191.019 117.728L175.725 105.605C175.603 105.649 175.479 105.685 175.354 105.716C174.814 105.842 174.254 105.854 173.709 105.749C173.165 105.644 172.648 105.425 172.194 105.106C171.736 104.788 171.351 104.374 171.065 103.894C170.779 103.414 170.599 102.878 170.536 102.322C170.433 101.433 170.632 100.535 171.101 99.7745C171.57 99.0138 172.281 98.4346 173.119 98.131C173.642 97.9425 174.199 97.8672 174.752 97.9099C175.306 97.9527 175.845 98.1125 176.333 98.3789C176.821 98.6454 177.248 99.0124 177.585 99.456C177.922 99.8997 178.162 100.41 178.289 100.953C178.329 101.125 178.356 101.3 178.371 101.476L193.596 110.301L197.385 108.109L201.582 113.63L195.699 117.843C195.01 118.332 194.183 118.585 193.34 118.564C192.497 118.544 191.683 118.25 191.019 117.728Z" fill="#FFB8B8"/>
<path d="M203.448 115.35L194.721 109.388L198.822 103.552C199.367 102.777 200.167 102.22 201.08 101.98C201.993 101.74 202.962 101.833 203.814 102.241C204.676 102.654 205.363 103.363 205.75 104.24C206.138 105.117 206.2 106.104 205.927 107.024L203.448 115.35Z" fill="#518672"/>
<path d="M204.418 86.4408C202.156 87.9965 199.185 89.5958 196.874 87.939C195.357 86.8511 194.879 84.8367 195.494 83.0688C196.601 79.8898 199.641 78.4902 202.548 77.4174C206.326 76.0228 210.441 74.9133 214.342 75.912C218.243 76.9108 221.691 80.7059 220.987 84.6884C220.421 87.8912 217.414 90.5561 217.841 93.7805C218.27 97.0257 221.902 98.7339 225.109 99.3139C228.316 99.8939 231.904 100.08 234.209 102.395C237.149 105.347 236.414 110.624 233.648 113.741C230.882 116.858 226.707 118.271 222.662 119.231C217.303 120.504 211.506 121.173 206.416 119.061C201.326 116.949 197.365 111.263 198.84 105.932C199.462 103.68 200.93 101.777 202.348 99.924C203.766 98.0712 205.201 96.1337 205.742 93.8605C206.193 91.9661 205.86 89.7667 204.609 88.3458C204.382 88.0971 204.239 87.7823 204.2 87.4468C204.162 87.1112 204.231 86.7722 204.396 86.4782L204.418 86.4408Z" fill="#2F2E41"/>
<path d="M39.0897 129.411C36.8215 130.212 34.3862 130.413 32.0185 129.994C29.6507 129.575 27.4303 128.55 25.5711 127.018C20.8362 123.025 19.3516 116.447 18.1437 110.355C16.9528 104.35 15.7619 98.3438 14.5709 92.3381L22.0509 97.5131C27.4301 101.235 32.9305 105.075 36.655 110.466C40.3795 115.856 42.0053 123.215 39.0127 129.048" fill="#E6E6E6"/>
<path d="M38.4504 151.225C39.2075 145.684 39.986 140.072 39.4549 134.472C38.9833 129.498 37.4731 124.641 34.3986 120.658C32.7666 118.547 30.7808 116.739 28.5305 115.315C27.9437 114.943 27.4036 115.877 27.9878 116.248C31.8816 118.72 34.8932 122.371 36.5886 126.674C38.4611 131.46 38.7618 136.676 38.4391 141.76C38.244 144.834 37.8304 147.888 37.4137 150.938C37.3808 151.076 37.4013 151.221 37.471 151.345C37.5407 151.468 37.6544 151.56 37.7891 151.602C37.9266 151.64 38.0731 151.621 38.1969 151.55C38.3207 151.48 38.4118 151.363 38.4504 151.225Z" fill="#F2F2F2"/>
<path d="M31.1576 141.42C30.1848 142.906 28.8476 144.114 27.275 144.93C25.7023 145.746 23.9471 146.14 22.1784 146.077C17.633 145.86 13.8436 142.672 10.4324 139.646L0.342773 130.695L7.02043 130.374C11.8226 130.143 16.7487 129.928 21.3226 131.416C25.8965 132.904 30.1148 136.485 30.9511 141.242" fill="#E6E6E6"/>
<path d="M40.5894 154.41C36.9455 147.931 32.7189 140.731 25.1666 138.43C23.0667 137.792 20.8648 137.564 18.6795 137.757C17.9907 137.817 18.1627 138.884 18.8502 138.824C22.5132 138.518 26.1692 139.49 29.2026 141.576C32.1216 143.572 34.3943 146.348 36.3179 149.291C37.4962 151.094 38.5517 152.973 39.6073 154.85C39.9447 155.45 40.9307 155.017 40.5894 154.41Z" fill="#F2F2F2"/>
<path d="M46.4278 161.229C46.305 159.8 45.7942 158.431 44.9511 157.273C44.1079 156.116 42.9647 155.212 41.646 154.662V150.917H35.3941V154.78C34.1402 155.357 33.0612 156.258 32.2669 157.391C31.4726 158.524 30.9915 159.848 30.8727 161.229L29.4026 178.399H47.8979L46.4278 161.229Z" fill="#F2F2F2"/>
</g>
<defs>
<clipPath id="clip0_20577_4801">
<rect width="248" height="180" fill="white" transform="translate(0 0.5)"/>
</clipPath>
</defs>
</svg>
