<svg width="164" height="120" viewBox="0 0 164 120" fill="none" xmlns="http://www.w3.org/2000/svg">
<g id="undraw_updated_re_u4yh 1" clip-path="url(#clip0_22197_231)">
<path id="Vector" d="M128.357 119.442H24.3201C24.3201 119.442 22.2113 94.4399 34.6887 94.1558C47.1661 93.8717 45.7602 105.236 61.401 89.61C77.0417 73.9838 96.0214 74.8361 98.4818 84.0698C100.942 93.3035 93.7368 100.69 106.917 98.4175C120.098 96.1446 139.077 102.111 128.357 119.442Z" fill="#E6E6E6"/>
<path id="Vector_2" d="M74.5826 119.448L74.2314 119.436C75.0503 102.975 79.3152 92.3988 82.7488 86.4251C86.4769 79.9387 90.0694 77.3129 90.1053 77.2871L90.3389 77.4994C90.3035 77.525 86.7529 80.1247 83.0547 86.5672C79.64 92.5156 75.3985 103.049 74.5826 119.448Z" fill="white"/>
<path id="Vector_3" d="M112.236 119.482L111.899 119.402C115.962 108.13 125.529 101.012 125.626 100.942L125.862 101.152C125.766 101.222 116.27 108.289 112.236 119.482Z" fill="white"/>
<path id="Vector_4" d="M40.7063 119.461L40.3581 119.422C41.4703 113.177 40.2454 106.743 36.9149 101.336C34.3903 97.2049 31.5098 94.9487 31.481 94.9264L31.7241 94.7213C31.7534 94.7439 34.6785 97.0349 37.23 101.21C40.5914 106.667 41.828 113.159 40.7063 119.461Z" fill="white"/>
<path id="Vector_5" d="M63.1616 78.174L64.8562 80.1281C65.0538 80.3565 65.1523 80.6535 65.1301 80.9541C65.1079 81.2546 64.9668 81.5341 64.7377 81.7313L48.3712 95.7861C48.1417 95.9828 47.8432 96.0808 47.5412 96.0587C47.2392 96.0366 46.9583 95.8962 46.7601 95.6682L45.0655 93.7142C44.8679 93.4858 44.7694 93.1887 44.7917 92.8882C44.8139 92.5876 44.955 92.3081 45.184 92.111L61.5505 78.0561C61.78 77.8595 62.0785 77.7615 62.3806 77.7836C62.6826 77.8057 62.9635 77.9461 63.1616 78.174Z" fill="#518672"/>
<path id="Vector_6" d="M78.1472 79.5279L76.9586 77.2338C76.8201 76.9658 76.7941 76.6541 76.8863 76.367C76.9785 76.0799 77.1814 75.841 77.4504 75.7026L96.6652 65.8444C96.9345 65.7066 97.2478 65.6808 97.5362 65.7725C97.8247 65.8643 98.0648 66.0662 98.2039 66.3339L99.3925 68.628C99.531 68.896 99.557 69.2077 99.4648 69.4948C99.3726 69.7819 99.1697 70.0208 98.9007 70.1592L79.6859 80.0174C79.4166 80.1552 79.1033 80.181 78.8149 80.0893C78.5264 79.9975 78.2863 79.7956 78.1472 79.5279Z" fill="#518672"/>
<path id="Vector_7" d="M76.5678 76.8966C76.6639 76.6084 76.7807 75.7455 77.0534 75.6093L85.5024 70.5136C85.6365 70.4466 85.7825 70.4065 85.9321 70.3957C86.0817 70.3849 86.232 70.4035 86.3744 70.4504C86.5168 70.4974 86.6485 70.5718 86.7619 70.6695C86.8754 70.7671 86.9684 70.886 87.0357 71.0194L89.1649 75.3867C89.3005 75.6561 89.3231 75.9682 89.2278 76.2543C89.1325 76.5403 88.9271 76.7771 88.6566 76.9126L79.3284 80.5771C79.0575 80.7119 78.744 80.7344 78.4565 80.6396C78.169 80.5447 77.9311 80.3403 77.7949 80.0711L76.6313 77.7644C76.5086 77.5231 76.4772 77.2459 76.5427 76.9834C76.5499 76.9544 76.5582 76.9254 76.5678 76.8966Z" fill="#3F3D56"/>
<path id="Vector_8" d="M96.7109 45.5685H96.3594V80.0196H96.7109V45.5685Z" fill="#3F3D56"/>
<path id="Vector_9" d="M94.9531 1.39897V44.2794C94.9533 44.581 95.0515 44.8744 95.233 45.116C95.4144 45.3575 95.6695 45.5342 95.9601 45.6198C96.2507 45.7053 96.5614 45.6951 96.8457 45.5906C97.13 45.4862 97.3728 45.2931 97.5378 45.0401C99.5581 41.9834 102.047 39.2607 104.915 36.9712C105.001 36.9011 105.089 36.8323 105.176 36.765C106.044 36.0832 106.945 35.4431 107.878 34.8446C107.939 34.8067 108 34.7675 108.06 34.731C113.674 31.1749 120.193 29.2913 126.848 29.3023H162.594C162.967 29.3023 163.324 29.1549 163.588 28.8925C163.852 28.6302 164 28.2743 164 27.9033V1.39897C164 1.02792 163.852 0.672073 163.588 0.409705C163.324 0.147336 162.967 -6.10352e-05 162.594 -6.10352e-05H96.359C95.9862 -6.10352e-05 95.6286 0.147336 95.3649 0.409705C95.1012 0.672073 94.9531 1.02792 94.9531 1.39897Z" fill="#E6E6E6"/>
<path id="Vector_10" d="M143.833 10.1523H98.5337C98.322 10.152 98.1191 10.0681 97.9695 9.919C97.8199 9.76992 97.7358 9.56785 97.7358 9.35716C97.7358 9.14648 97.8199 8.94441 97.9695 8.79532C98.1191 8.64624 98.322 8.56233 98.5337 8.56201H143.833C143.938 8.56186 144.042 8.58231 144.139 8.6222C144.236 8.66209 144.324 8.72064 144.398 8.79449C144.473 8.86834 144.532 8.95605 144.572 9.0526C144.612 9.14915 144.633 9.25264 144.633 9.35716C144.633 9.46168 144.612 9.56518 144.572 9.66173C144.532 9.75828 144.473 9.84598 144.398 9.91984C144.324 9.99369 144.236 10.0522 144.139 10.0921C144.042 10.132 143.938 10.1525 143.833 10.1523Z" fill="#CCCCCC"/>
<path id="Vector_11" d="M143.833 13.7455H98.534C98.3221 13.7455 98.1188 13.6617 97.9689 13.5126C97.8191 13.3634 97.7349 13.1612 97.7349 12.9503C97.7349 12.7394 97.8191 12.5371 97.9689 12.3879C98.1188 12.2388 98.3221 12.155 98.534 12.155H143.833C143.938 12.155 144.042 12.1756 144.139 12.2156C144.236 12.2555 144.324 12.3141 144.398 12.3879C144.472 12.4618 144.531 12.5495 144.571 12.6459C144.611 12.7424 144.632 12.8458 144.632 12.9503C144.632 13.0547 144.611 13.1581 144.571 13.2546C144.531 13.3511 144.472 13.4387 144.398 13.5126C144.324 13.5864 144.236 13.645 144.139 13.685C144.042 13.7249 143.938 13.7455 143.833 13.7455Z" fill="#CCCCCC"/>
<path id="Vector_12" d="M143.833 17.3386H98.5337C98.322 17.3383 98.1191 17.2544 97.9695 17.1053C97.8199 16.9562 97.7358 16.7541 97.7358 16.5434C97.7358 16.3328 97.8199 16.1307 97.9695 15.9816C98.1191 15.8325 98.322 15.7486 98.5337 15.7483H143.833C143.938 15.7481 144.042 15.7686 144.139 15.8085C144.236 15.8484 144.324 15.9069 144.398 15.9808C144.473 16.0546 144.532 16.1423 144.572 16.2389C144.612 16.3354 144.633 16.4389 144.633 16.5434C144.633 16.648 144.612 16.7515 144.572 16.848C144.532 16.9446 144.473 17.0323 144.398 17.1061C144.324 17.18 144.236 17.2385 144.139 17.2784C144.042 17.3183 143.938 17.3387 143.833 17.3386Z" fill="#CCCCCC"/>
<path id="Vector_13" d="M160.472 17.3385H153.125C152.915 17.3383 152.714 17.2553 152.566 17.1078C152.418 16.9602 152.334 16.7602 152.334 16.5516V9.24014C152.334 9.0315 152.418 8.83146 152.566 8.68393C152.714 8.5364 152.915 8.45341 153.125 8.45319H160.472C160.682 8.45341 160.883 8.5364 161.031 8.68393C161.179 8.83146 161.263 9.0315 161.263 9.24014V16.5516C161.263 16.7602 161.179 16.9602 161.031 17.1078C160.883 17.2553 160.682 17.3383 160.472 17.3385ZM153.125 8.62806C152.962 8.62826 152.805 8.69281 152.69 8.80755C152.575 8.9223 152.51 9.07787 152.51 9.24014V16.5516C152.51 16.7138 152.575 16.8694 152.69 16.9841C152.805 17.0989 152.962 17.1634 153.125 17.1636H160.472C160.635 17.1634 160.792 17.0989 160.907 16.9841C161.022 16.8694 161.087 16.7138 161.087 16.5516V9.24014C161.087 9.07787 161.022 8.9223 160.907 8.80755C160.792 8.69281 160.635 8.62826 160.472 8.62806H153.125Z" fill="#518672"/>
<path id="Vector_14" d="M156.792 14.7394C156.738 14.7396 156.686 14.7281 156.637 14.7059C156.589 14.6838 156.546 14.6514 156.512 14.611L154.204 11.9327C154.14 11.8585 154.109 11.7623 154.116 11.6651C154.124 11.5679 154.17 11.4776 154.244 11.4142C154.319 11.3507 154.415 11.3193 154.513 11.3267C154.611 11.3341 154.702 11.3798 154.765 11.4538L156.599 13.5822C156.618 13.6048 156.643 13.6226 156.67 13.6343C156.697 13.6459 156.727 13.6511 156.756 13.6493C156.786 13.6479 156.815 13.6398 156.84 13.6255C156.866 13.6113 156.889 13.5912 156.906 13.567L162.53 5.55318C162.558 5.51352 162.593 5.4797 162.634 5.45364C162.675 5.42759 162.721 5.40982 162.769 5.40134C162.816 5.39286 162.865 5.39384 162.913 5.40422C162.96 5.41461 163.005 5.4342 163.045 5.46187C163.085 5.48954 163.119 5.52474 163.145 5.56548C163.171 5.60621 163.189 5.65168 163.197 5.69927C163.206 5.74686 163.205 5.79565 163.194 5.84285C163.184 5.89004 163.164 5.93472 163.136 5.97432L157.095 14.5821C157.063 14.6283 157.021 14.6665 156.971 14.6937C156.922 14.7209 156.867 14.7365 156.81 14.7391C156.804 14.7392 156.798 14.7394 156.792 14.7394Z" fill="#518672"/>
<path id="Vector_15" d="M96.5347 49.5908C98.767 49.5908 100.577 47.79 100.577 45.5686C100.577 43.3472 98.767 41.5464 96.5347 41.5464C94.3023 41.5464 92.4927 43.3472 92.4927 45.5686C92.4927 47.79 94.3023 49.5908 96.5347 49.5908Z" fill="#3F3D56"/>
<path id="Vector_16" d="M48.558 70.5762H48.2065V105.027H48.558V70.5762Z" fill="#3F3D56"/>
<path id="Vector_17" d="M48.1934 70.3402C47.9605 70.3399 47.731 70.2842 47.524 70.1778C47.317 70.0715 47.1385 69.9175 47.0033 69.7286C45.6925 67.9378 44.1487 66.3281 42.4123 64.9415C42.3506 64.8913 42.2886 64.8423 42.2264 64.7946C41.6075 64.3088 40.9577 63.847 40.2943 63.4216L40.2481 63.3925C40.2207 63.3751 40.1933 63.3579 40.1658 63.3413C36.1658 60.8044 31.5206 59.4578 26.7772 59.4602H1.49378C1.09774 59.4597 0.71806 59.3029 0.438021 59.0243C0.157983 58.7456 0.000456745 58.3678 0 57.9737V39.7542C0.000456745 39.3601 0.157983 38.9823 0.438021 38.7036C0.71806 38.425 1.09774 38.2682 1.49378 38.2678H48.2068C48.6029 38.2682 48.9826 38.425 49.2626 38.7036C49.5426 38.9823 49.7001 39.3601 49.7006 39.7542V68.8498C49.7039 69.1647 49.6053 69.4724 49.4192 69.7271C49.2331 69.9819 48.9695 70.1703 48.6675 70.2644C48.5144 70.3143 48.3545 70.3399 48.1934 70.3402Z" fill="#E6E6E6"/>
<path id="Vector_18" d="M47.0444 45.6618H14.5531C14.4746 45.6618 14.3968 45.6464 14.3242 45.6165C14.2517 45.5866 14.1858 45.5428 14.1302 45.4875C14.0747 45.4323 14.0307 45.3667 14.0006 45.2945C13.9705 45.2223 13.9551 45.1449 13.9551 45.0668C13.9551 44.9886 13.9705 44.9112 14.0006 44.839C14.0307 44.7668 14.0747 44.7012 14.1302 44.646C14.1858 44.5907 14.2517 44.5469 14.3242 44.517C14.3968 44.4871 14.4746 44.4717 14.5531 44.4717H47.0444C47.1229 44.4717 47.2007 44.4871 47.2732 44.517C47.3458 44.5469 47.4117 44.5907 47.4672 44.646C47.5228 44.7012 47.5668 44.7668 47.5969 44.839C47.6269 44.9112 47.6424 44.9886 47.6424 45.0668C47.6424 45.1449 47.6269 45.2223 47.5969 45.2945C47.5668 45.3667 47.5228 45.4323 47.4672 45.4875C47.4117 45.5428 47.3458 45.5866 47.2732 45.6165C47.2007 45.6464 47.1229 45.6618 47.0444 45.6618Z" fill="#CCCCCC"/>
<path id="Vector_19" d="M47.0443 48.2391H14.553C14.3946 48.2388 14.2428 48.176 14.1308 48.0644C14.0189 47.9528 13.9561 47.8016 13.9561 47.644C13.9561 47.4863 14.0189 47.3351 14.1308 47.2235C14.2428 47.112 14.3946 47.0492 14.553 47.0489H47.0443C47.2029 47.0489 47.355 47.1116 47.4672 47.2232C47.5793 47.3348 47.6423 47.4861 47.6423 47.644C47.6423 47.8018 47.5793 47.9532 47.4672 48.0648C47.355 48.1764 47.2029 48.2391 47.0443 48.2391Z" fill="#CCCCCC"/>
<path id="Vector_20" d="M47.0444 50.8163H14.5531C14.4746 50.8163 14.3968 50.8009 14.3242 50.771C14.2517 50.7411 14.1858 50.6973 14.1302 50.642C14.0747 50.5868 14.0307 50.5212 14.0006 50.449C13.9705 50.3768 13.9551 50.2994 13.9551 50.2212C13.9551 50.1431 13.9705 50.0657 14.0006 49.9935C14.0307 49.9213 14.0747 49.8557 14.1302 49.8005C14.1858 49.7452 14.2517 49.7014 14.3242 49.6715C14.3968 49.6416 14.4746 49.6262 14.5531 49.6262H47.0444C47.1229 49.6262 47.2007 49.6416 47.2732 49.6715C47.3458 49.7014 47.4117 49.7452 47.4672 49.8005C47.5228 49.8557 47.5668 49.9213 47.5969 49.9935C47.6269 50.0657 47.6424 50.1431 47.6424 50.2212C47.6424 50.2994 47.6269 50.3768 47.5969 50.449C47.5668 50.5212 47.5228 50.5868 47.4672 50.642C47.4117 50.6973 47.3458 50.7411 47.2732 50.771C47.2007 50.8009 47.1229 50.8163 47.0444 50.8163Z" fill="#CCCCCC"/>
<path id="Vector_21" d="M7.68933 50.8164H2.8167C2.60703 50.8161 2.40602 50.7331 2.25776 50.5856C2.1095 50.4381 2.02611 50.238 2.02588 50.0294V45.1806C2.02611 44.972 2.1095 44.772 2.25776 44.6244C2.40602 44.4769 2.60703 44.3939 2.8167 44.3937H7.68933C7.899 44.3939 8.10001 44.4769 8.24827 44.6244C8.39653 44.772 8.47992 44.972 8.48015 45.1806V50.0294C8.47992 50.238 8.39653 50.4381 8.24827 50.5856C8.10001 50.7331 7.899 50.8161 7.68933 50.8164Z" fill="#CCCCCC"/>
<path id="Vector_22" d="M5.22468 48.9521C5.18287 48.9521 5.14155 48.9431 5.10359 48.9257C5.06562 48.9083 5.03192 48.8828 5.00483 48.8512L3.34999 46.9302C3.30002 46.8721 3.27525 46.7966 3.28112 46.7203C3.28699 46.644 3.32302 46.5732 3.38131 46.5233C3.43973 46.4734 3.51564 46.4487 3.59234 46.4546C3.66905 46.4605 3.74028 46.4964 3.79037 46.5545L5.10558 48.0811C5.11719 48.0939 5.13145 48.1041 5.14739 48.111C5.16332 48.1178 5.18056 48.1211 5.19791 48.1207C5.21536 48.1199 5.23238 48.1151 5.24768 48.1067C5.26297 48.0983 5.27612 48.0865 5.28612 48.0722L9.32029 42.3241C9.34207 42.2929 9.36981 42.2663 9.40193 42.2459C9.43405 42.2254 9.46992 42.2114 9.50748 42.2047C9.54504 42.198 9.58355 42.1988 9.62082 42.2069C9.65808 42.2151 9.69336 42.2305 9.72464 42.2522C9.75592 42.274 9.78258 42.3016 9.8031 42.3336C9.82362 42.3657 9.83759 42.4014 9.84421 42.4388C9.85083 42.4762 9.84998 42.5145 9.84169 42.5515C9.83341 42.5886 9.81786 42.6237 9.79594 42.6548L5.46289 48.8286C5.43763 48.8648 5.40432 48.8948 5.36555 48.9161C5.32679 48.9374 5.2836 48.9496 5.23935 48.9516C5.23446 48.9519 5.22957 48.9521 5.22468 48.9521Z" fill="white"/>
<path id="Vector_23" d="M48.3823 74.5984C50.6146 74.5984 52.4243 72.7976 52.4243 70.5762C52.4243 68.3548 50.6146 66.554 48.3823 66.554C46.15 66.554 44.3403 68.3548 44.3403 70.5762C44.3403 72.7976 46.15 74.5984 48.3823 74.5984Z" fill="#3F3D56"/>
<path id="Vector_24" d="M71.0958 69.8146C76.2902 69.8146 80.5012 65.6243 80.5012 60.4553C80.5012 55.2863 76.2902 51.0959 71.0958 51.0959C65.9014 51.0959 61.6904 55.2863 61.6904 60.4553C61.6904 65.6243 65.9014 69.8146 71.0958 69.8146Z" fill="#518672"/>
<path id="Vector_25" d="M70.6682 119.8H68.0744C67.7716 119.799 67.4812 119.679 67.2671 119.466C67.0529 119.253 66.9325 118.964 66.9321 118.663V97.1504C66.9325 96.849 67.0529 96.5601 67.2671 96.347C67.4812 96.1339 67.7716 96.014 68.0744 96.0137H70.6682C70.9711 96.014 71.2614 96.1339 71.4755 96.347C71.6897 96.5601 71.8102 96.849 71.8105 97.1504V118.663C71.8102 118.964 71.6897 119.253 71.4755 119.466C71.2614 119.679 70.9711 119.799 70.6682 119.8Z" fill="#518672"/>
<path id="Vector_26" d="M84.6169 108.261L82.5069 109.763C82.2604 109.938 81.9541 110.008 81.6554 109.959C81.3566 109.909 81.0897 109.744 80.9133 109.499L68.3395 91.9997C68.1637 91.7543 68.0928 91.4496 68.1424 91.1523C68.1921 90.855 68.3582 90.5894 68.6043 90.4139L70.7143 88.9126C70.9609 88.7376 71.2671 88.667 71.5659 88.7164C71.8646 88.7659 72.1315 88.9311 72.3079 89.1761L84.8817 106.675C85.0576 106.921 85.1284 107.226 85.0788 107.523C85.0292 107.82 84.863 108.086 84.6169 108.261Z" fill="#518672"/>
<path id="Vector_27" d="M77.8043 119.648L75.4823 118.498C74.9184 118.219 74.6015 117.708 74.7759 117.359L80.7603 105.398C80.9347 105.049 81.5353 104.993 82.0991 105.272L84.4211 106.423C84.985 106.702 85.3018 107.213 85.1275 107.561L79.1431 119.523C78.9687 119.872 78.3681 119.928 77.8043 119.648Z" fill="#518672"/>
<path id="Vector_28" d="M86.0626 92.3875C86.0626 100.018 78.85 102.479 71.1825 102.479C63.5149 102.479 58.2959 100.018 58.2959 92.3875C58.2959 84.7574 63.4573 71.7518 71.1248 71.7518C78.7924 71.7518 86.0626 84.7574 86.0626 92.3875Z" fill="#3F3D56"/>
<path id="Vector_29" d="M65.4981 75.9999C65.7639 76.0565 66.0004 76.2064 66.1644 76.422L67.7359 78.4753C67.9191 78.7153 67.9992 79.0178 67.9585 79.3164C67.9179 79.6151 67.7599 79.8855 67.5192 80.0684L60.1142 86.7987C59.8731 86.981 59.5691 87.0607 59.269 87.0202C58.9689 86.9798 58.6972 86.8226 58.5134 86.583L55.5055 82.7615C55.4146 82.6428 55.3481 82.5074 55.3098 82.3631C55.2715 82.2187 55.2622 82.0683 55.2823 81.9204C55.3024 81.7725 55.3516 81.6299 55.4271 81.5009C55.5026 81.3719 55.6029 81.259 55.7222 81.1686L64.0333 75.8529C64.2761 75.669 65.1064 75.9435 65.4087 75.9842C65.4389 75.9882 65.4688 75.9936 65.4981 75.9999Z" fill="#3F3D56"/>
<path id="Vector_30" d="M70.9438 51.1648C69.8351 48.9003 70.8178 46.1332 72.6251 44.5326C74.8078 42.5996 78.0647 42.6108 80.6559 43.6371C83.4698 44.7517 85.5624 47.1179 87.0672 49.6617C87.8257 50.944 88.4181 52.3016 89.0466 53.6487C89.6623 54.9683 90.3568 56.2861 91.395 57.33C92.2636 58.2168 93.4075 58.7859 94.6415 58.9451C95.7743 59.0891 96.9949 58.8607 97.8608 58.0799C98.0677 57.8899 98.2486 57.6736 98.3987 57.4367C98.5826 57.1518 98.1265 56.8884 97.9435 57.1719C97.3126 58.1491 96.1519 58.5148 95.0306 58.4563C93.7932 58.3802 92.6293 57.8461 91.7678 56.959C90.7203 55.9058 90.0438 54.5569 89.428 53.2248C88.7936 51.8526 88.18 50.4779 87.3939 49.1823C85.8369 46.6165 83.6999 44.3028 80.8613 43.1574C78.2146 42.0893 74.9292 42.0713 72.5949 43.8787C70.6344 45.3966 69.4532 48.1124 70.1478 50.5544C70.2351 50.8556 70.3492 51.1484 70.4886 51.4296C70.6372 51.733 71.092 51.4674 70.9438 51.1648Z" fill="#2F2E41"/>
<path id="Vector_31" d="M71.2662 50.3062L68.763 49.4838C68.6425 49.4441 68.531 49.3813 68.4349 49.2988C68.3388 49.2164 68.26 49.1158 68.2029 49.003C68.1458 48.8902 68.1116 48.7673 68.1022 48.6414C68.0929 48.5154 68.1086 48.3889 68.1483 48.269C68.1881 48.149 68.2513 48.0381 68.3342 47.9424C68.4171 47.8468 68.5181 47.7683 68.6314 47.7115C68.7448 47.6547 68.8683 47.6207 68.9949 47.6114C69.1214 47.6021 69.2486 47.6177 69.3691 47.6573L71.8723 48.4797C71.993 48.5192 72.1048 48.5819 72.2011 48.6643C72.2975 48.7468 72.3766 48.8473 72.4338 48.9602C72.4911 49.0731 72.5254 49.1961 72.5348 49.3222C72.5443 49.4483 72.5286 49.575 72.4888 49.6951C72.4489 49.8152 72.3857 49.9263 72.3026 50.022C72.2196 50.1177 72.1184 50.1962 72.0049 50.253C71.8913 50.3098 71.7676 50.3437 71.6409 50.3528C71.5141 50.3619 71.3868 50.3461 71.2662 50.3062Z" fill="#2F2E41"/>
<path id="Vector_32" d="M69.8438 63.9242L69.834 63.5745C70.4879 63.5564 71.0643 63.5155 71.4975 63.2006C71.6203 63.1063 71.7212 62.9867 71.7935 62.85C71.8657 62.7134 71.9075 62.5629 71.916 62.4087C71.9236 62.3145 71.9093 62.2199 71.8741 62.1321C71.839 62.0443 71.784 61.9657 71.7134 61.9025C71.4258 61.6609 70.9632 61.7391 70.6259 61.893L70.3351 62.0257L70.8928 57.9702L71.241 58.0176L70.7667 61.4674C71.2249 61.3333 71.6495 61.391 71.9403 61.6354C72.0519 61.7324 72.1395 61.8538 72.1963 61.9901C72.253 62.1264 72.2773 62.2739 72.2672 62.421C72.2569 62.6281 72.2013 62.8305 72.1041 63.014C72.007 63.1975 71.8707 63.3576 71.7048 63.4831C71.1482 63.8878 70.425 63.908 69.8438 63.9242Z" fill="#2F2E41"/>
<path id="Vector_33" d="M74.8563 58.3151H72.9634V58.6649H74.8563V58.3151Z" fill="#2F2E41"/>
<path id="Vector_34" d="M68.8808 58.3151H66.9878V58.6649H68.8808V58.3151Z" fill="#2F2E41"/>
<path id="Vector_35" d="M103.789 119.608H46.8442V120H103.789V119.608Z" fill="#3F3D56"/>
</g>
<defs>
<clipPath id="clip0_22197_231">
<rect width="164" height="120" fill="white"/>
</clipPath>
</defs>
</svg>
