<svg width="148" height="121" viewBox="0 0 148 121" fill="none" xmlns="http://www.w3.org/2000/svg">
<g clip-path="url(#clip0_20793_3785)">
<path d="M137.727 120.205V106.665C137.727 106.665 143.001 116.265 137.727 120.205Z" fill="#F1F1F1"/>
<path d="M138.053 120.203L128.082 111.046C128.082 111.046 138.718 113.651 138.053 120.203Z" fill="#F1F1F1"/>
<path d="M45.4841 4.12435C46.6226 4.12435 47.5454 3.20108 47.5454 2.06217C47.5454 0.923267 46.6226 0 45.4841 0C44.3457 0 43.4228 0.923267 43.4228 2.06217C43.4228 3.20108 44.3457 4.12435 45.4841 4.12435Z" fill="#F1F1F1"/>
<path d="M40.2455 9.36519C41.3839 9.36519 42.3068 8.44193 42.3068 7.30302C42.3068 6.16411 41.3839 5.24084 40.2455 5.24084C39.107 5.24084 38.1841 6.16411 38.1841 7.30302C38.1841 8.44193 39.107 9.36519 40.2455 9.36519Z" fill="#F1F1F1"/>
<path d="M38.9358 102.391C40.0743 102.391 40.9972 101.468 40.9972 100.329C40.9972 99.1899 40.0743 98.2666 38.9358 98.2666C37.7974 98.2666 36.8745 99.1899 36.8745 100.329C36.8745 101.468 37.7974 102.391 38.9358 102.391Z" fill="#F1F1F1"/>
<path d="M109.405 117.761H107.163L107.035 109.243L109.405 109.109V117.761Z" fill="#9F616A"/>
<path d="M109.979 119.937L102.746 119.937V119.843C102.746 119.096 103.043 118.38 103.571 117.852C104.099 117.324 104.815 117.027 105.562 117.026H109.979V119.937Z" fill="#2F2E41"/>
<path d="M122.239 115.176L120.184 116.073L116.664 108.317L118.784 107.246L122.239 115.176Z" fill="#9F616A"/>
<path d="M117.004 119.834L116.967 119.748C116.819 119.409 116.739 119.044 116.733 118.674C116.726 118.304 116.792 117.937 116.927 117.592C117.062 117.248 117.264 116.934 117.521 116.667C117.777 116.401 118.084 116.188 118.423 116.04L122.472 114.274L123.635 116.942L117.004 119.834Z" fill="#2F2E41"/>
<path d="M113.389 50.53C116.072 50.53 118.247 48.3541 118.247 45.67C118.247 42.9859 116.072 40.81 113.389 40.81C110.706 40.81 108.531 42.9859 108.531 45.67C108.531 48.3541 110.706 50.53 113.389 50.53Z" fill="#9F616A"/>
<path d="M122.085 111.111L115.806 95.7656L118.855 81.4074L113.07 81.0933L109.885 97.1564L117.914 113.085L122.085 111.111Z" fill="#2F2E41"/>
<path d="M115.223 78.5358L112.263 96.8871L111.373 114.476L106.263 114.431L106.073 80.7792L115.223 78.5358Z" fill="#2F2E41"/>
<path d="M119.283 79.5823L118.992 82.2403L104.507 82.8887L105.488 78.892L119.283 79.5823Z" fill="#CBCBCB"/>
<path d="M105.51 84.6001C105.371 84.4255 105.269 84.2252 105.208 84.0108C105.148 83.7964 105.13 83.572 105.157 83.3508C105.184 83.1296 105.254 82.9159 105.364 82.722C105.474 82.5282 105.621 82.3581 105.797 82.2215C105.871 82.1644 105.949 82.1133 106.031 82.0687L111.712 60.7103L115.08 62.1909L108.406 82.8306C108.565 83.1765 108.602 83.5659 108.512 83.9357C108.422 84.3055 108.21 84.634 107.909 84.8678C107.555 85.1481 107.104 85.2772 106.655 85.227C106.205 85.1769 105.794 84.9516 105.51 84.6001Z" fill="#9F616A"/>
<path d="M109.101 55.2079L109.771 53.8233C109.771 53.8233 113.07 50.9699 116.55 52.6803L117.086 54.2788L119.925 58.864L119.283 80.0424C119.283 80.0424 107.442 79.1416 104.507 80.2149L105.797 63.433L109.101 55.2079Z" fill="#3F3D56"/>
<path d="M109.717 82.0859L104.717 80.6868L109.341 66.2303L109.76 58.1589C109.784 57.7512 109.893 57.3532 110.081 56.9905C110.269 56.6278 110.53 56.3085 110.849 56.0533C111.233 55.742 111.677 55.5134 112.154 55.382C112.63 55.2506 113.129 55.2192 113.618 55.2897C115.252 55.5135 116.453 56.7633 116.475 58.2615L116.475 58.2688L116.474 58.276L114.869 69.5892L114.354 71.4308L109.717 82.0859Z" fill="#CBCBCB"/>
<path d="M115.591 49.4794L116.697 49.7591L118.373 47.9765C118.373 47.9765 121.453 40.8282 114.645 39.7343C107.837 38.6404 109.324 41.4021 108.413 43.1339L111.195 43.8575L113.699 46.418C113.699 46.418 115.333 45.2208 115.813 46.3066C116.294 47.3925 115.591 49.4794 115.591 49.4794Z" fill="#2F2E41"/>
<path d="M76.8543 90.9384H0.875V14.928H76.8543V90.9384Z" fill="white"/>
<path d="M76.8543 90.9384H0.875V14.928H76.8543V90.9384ZM1.99759 89.8154H75.7317V16.0511H1.99759V89.8154Z" fill="#E5E5E5"/>
<path d="M65.2688 47.6039H16.5409V49.3247H65.2688V47.6039Z" fill="#518672"/>
<path d="M65.2688 52.0781H16.5409V53.7989H65.2688V52.0781Z" fill="#518672"/>
<path d="M65.2688 56.5522H16.5409V58.273H65.2688V56.5522Z" fill="#518672"/>
<path d="M13.5832 49.8395C14.2031 49.8395 14.7057 49.3367 14.7057 48.7164C14.7057 48.0962 14.2031 47.5934 13.5832 47.5934C12.9632 47.5934 12.4606 48.0962 12.4606 48.7164C12.4606 49.3367 12.9632 49.8395 13.5832 49.8395Z" fill="#518672"/>
<path d="M65.2688 28.325H16.5409V30.0458H65.2688V28.325Z" fill="#E5E5E5"/>
<path d="M65.2688 32.7991H16.5409V34.5199H65.2688V32.7991Z" fill="#E5E5E5"/>
<path d="M65.2688 37.2733H16.5409V38.9941H65.2688V37.2733Z" fill="#E5E5E5"/>
<path d="M13.5832 30.3734C14.2031 30.3734 14.7057 29.8705 14.7057 29.2503C14.7057 28.6301 14.2031 28.1273 13.5832 28.1273C12.9632 28.1273 12.4606 28.6301 12.4606 29.2503C12.4606 29.8705 12.9632 30.3734 13.5832 30.3734Z" fill="#E5E5E5"/>
<path d="M65.2688 67.0701H16.5409V68.791H65.2688V67.0701Z" fill="#E5E5E5"/>
<path d="M65.2688 71.5441H16.5409V73.265H65.2688V71.5441Z" fill="#E5E5E5"/>
<path d="M65.2688 76.0184H16.5409V77.7392H65.2688V76.0184Z" fill="#E5E5E5"/>
<path d="M13.5832 69.1185C14.2031 69.1185 14.7057 68.6157 14.7057 67.9954C14.7057 67.3752 14.2031 66.8724 13.5832 66.8724C12.9632 66.8724 12.4606 67.3752 12.4606 67.9954C12.4606 68.6157 12.9632 69.1185 13.5832 69.1185Z" fill="#E5E5E5"/>
<path d="M146.938 120.157H90.9956C90.946 120.157 90.8984 120.138 90.8633 120.103C90.8282 120.068 90.8085 120.02 90.8085 119.97C90.8085 119.921 90.8282 119.873 90.8633 119.838C90.8984 119.803 90.946 119.783 90.9956 119.783H146.938C146.987 119.783 147.035 119.803 147.07 119.838C147.105 119.873 147.125 119.921 147.125 119.97C147.125 120.02 147.105 120.068 147.07 120.103C147.035 120.138 146.987 120.157 146.938 120.157Z" fill="#CBCBCB"/>
</g>
<defs>
<clipPath id="clip0_20793_3785">
<rect width="146.25" height="120.205" fill="white" transform="translate(0.875)"/>
</clipPath>
</defs>
</svg>
