<svg width="48" height="48" viewBox="0 0 48 48" fill="none" xmlns="http://www.w3.org/2000/svg">
<path d="M24 44.4375L15.375 21.8749H32.625L24 44.4375Z" fill="#2EC3FC"/>
<path d="M27.5509 24.3465L24 44.4375L32.625 21.8749L27.5509 24.3465Z" fill="#1BA4FC"/>
<path d="M24 24.5868C28.7635 24.5868 32.625 23.3726 32.625 21.8748C32.625 20.377 28.7635 19.1628 24 19.1628C19.2365 19.1628 15.375 20.377 15.375 21.8748C15.375 23.3726 19.2365 24.5868 24 24.5868Z" fill="#F8B62B"/>
<path d="M26.124 36.1564C26.9525 36.1564 27.624 35.4848 27.624 34.6564C27.624 33.8279 26.9525 33.1564 26.124 33.1564C25.2956 33.1564 24.624 33.8279 24.624 34.6564C24.624 35.4848 25.2956 36.1564 26.124 36.1564Z" fill="#F9D12F"/>
<path d="M19.375 27.1564C18.7414 27.156 18.124 27.3575 17.6125 27.7316L19.6803 33.141C20.446 33.0632 21.1525 32.6941 21.6537 32.11C22.1548 31.526 22.4124 30.7716 22.3731 30.003C22.3337 29.2344 22.0005 28.5103 21.4423 27.9804C20.884 27.4506 20.1435 27.1556 19.3739 27.1564H19.375Z" fill="#F9D12F"/>
<path d="M23.9999 3.5625L24.9442 5.47537L27.0551 5.78212L25.5277 7.27125L25.8881 9.37387L23.9999 8.38125L22.1118 9.37387L22.4722 7.27125L20.9448 5.78212L23.0557 5.47537L23.9999 3.5625Z" fill="#EC4D85"/>
<path d="M24 22.5311C23.826 22.5311 23.659 22.462 23.536 22.3389C23.4129 22.2159 23.3438 22.0489 23.3438 21.8749V11.4315C23.3438 11.2575 23.4129 11.0906 23.536 10.9675C23.659 10.8444 23.826 10.7753 24 10.7753C24.174 10.7753 24.341 10.8444 24.464 10.9675C24.5871 11.0906 24.6562 11.2575 24.6562 11.4315V21.8749C24.6562 22.0489 24.5871 22.2159 24.464 22.3389C24.341 22.462 24.174 22.5311 24 22.5311Z" fill="#FD852B"/>
<path d="M5.38128 4.90496L7.40141 5.59008L9.11141 4.31433L9.08403 6.44733L10.8259 7.67921L8.78853 8.31221L8.15516 10.3496L6.92366 8.60771L4.79028 8.63508L6.06641 6.92546L5.38128 4.90496Z" fill="#1BA4FC"/>
<path d="M19.9991 22.5308C19.9024 22.5308 19.8068 22.5094 19.7193 22.4681C19.6318 22.4269 19.5545 22.3668 19.4929 22.2922C19.4313 22.2176 19.387 22.1304 19.363 22.0366C19.3391 21.9429 19.3362 21.845 19.3545 21.7501C19.3608 21.7178 19.968 18.5221 18.6948 16.7858L18.6723 16.7554C18.5179 17.3827 18.1538 17.9384 17.6403 18.3304C16.5903 19.1506 15.4278 19.2383 14.5308 18.5671C14.1173 18.2546 13.8139 17.8187 13.6645 17.3224C13.5151 16.8261 13.5275 16.2951 13.6998 15.8063C13.9001 15.3016 14.6122 14.1541 16.8843 14.4109C16.947 14.4181 17.0088 14.4263 17.07 14.4349C16.0901 12.3053 13.4973 10.1746 11.2361 10.3422C11.0625 10.3555 10.8908 10.2993 10.7587 10.1861C10.6265 10.0728 10.5448 9.91161 10.5315 9.73806C10.5181 9.56451 10.5743 9.39277 10.6876 9.26063C10.8009 9.12848 10.962 9.04676 11.1356 9.03343C14.1506 8.80431 17.3928 11.6056 18.4226 14.2654C18.5142 14.5004 18.5894 14.7415 18.6476 14.9869C19.0816 15.2517 19.4584 15.6004 19.7561 16.0126C21.3686 18.2168 20.6726 21.8502 20.6422 22.0039C20.6124 22.1525 20.532 22.2862 20.4148 22.3823C20.2976 22.4783 20.1507 22.5308 19.9991 22.5308ZM16.2622 15.6867C15.5546 15.6867 15.0753 15.8978 14.9197 16.2897C14.8524 16.5102 14.8544 16.7461 14.9256 16.9655C14.9968 17.1848 15.1336 17.377 15.3176 17.5159C15.7226 17.8189 16.2607 17.7409 16.833 17.2947C17.0467 17.1274 17.2155 16.9096 17.324 16.6608C17.4326 16.412 17.4775 16.1401 17.4547 15.8697C17.2219 15.7914 16.9812 15.739 16.737 15.7133C16.5793 15.6955 16.4208 15.6866 16.2622 15.6867Z" fill="#FD852B"/>
<path d="M42.6187 4.90496L40.5986 5.59008L38.8886 4.31433L38.9159 6.44733L37.1741 7.67921L39.2114 8.31221L39.8444 10.3496L41.0763 8.60771L43.2097 8.63508L41.9336 6.92546L42.6187 4.90496Z" fill="#2EC3FC"/>
<path d="M28.0004 22.5308C27.8487 22.5306 27.7017 22.4779 27.5845 22.3815C27.4673 22.2852 27.3871 22.1512 27.3576 22.0024C27.3273 21.849 26.6316 18.2149 28.2438 16.011C28.5414 15.5993 28.9181 15.251 29.3519 14.9865C29.4101 14.7411 29.4853 14.5 29.5769 14.265C30.6066 11.6051 33.8519 8.81251 36.8624 9.03301C37.0359 9.04642 37.197 9.12817 37.3103 9.26029C37.4236 9.39242 37.4798 9.56411 37.4665 9.73764C37.4514 9.91048 37.3692 10.0705 37.2374 10.1834C37.1057 10.2964 36.935 10.3532 36.7619 10.3418C34.504 10.173 31.9083 12.3049 30.928 14.4345C30.9891 14.4259 31.051 14.4173 31.1136 14.4105C33.3869 14.1533 34.0975 15.3011 34.2981 15.8059C34.4704 16.2947 34.4828 16.8256 34.3334 17.3219C34.184 17.8182 33.8806 18.2541 33.4671 18.5666C32.5713 19.2386 31.4088 19.1498 30.3576 18.33C29.8442 17.9379 29.4801 17.3823 29.3256 16.755L29.3031 16.7854C28.0319 18.5201 28.639 21.7159 28.6454 21.75C28.664 21.8451 28.6613 21.9432 28.6375 22.0372C28.6137 22.1311 28.5694 22.2187 28.5078 22.2935C28.4462 22.3683 28.3688 22.4285 28.2811 22.4699C28.1934 22.5112 28.0977 22.5327 28.0008 22.5326L28.0004 22.5308ZM30.5444 15.8711C30.5216 16.1416 30.5666 16.4135 30.6751 16.6622C30.7836 16.911 30.9524 17.1289 31.1661 17.2961C31.7388 17.7424 32.2773 17.8211 32.6815 17.5174C32.8657 17.3784 33.0027 17.1861 33.074 16.9666C33.1452 16.7472 33.1472 16.5111 33.0798 16.2904C32.8923 15.816 32.2289 15.606 31.2621 15.7159C31.0181 15.7413 30.7771 15.7934 30.5444 15.8711Z" fill="#FD852B"/>
<path d="M26.1239 36.1564C26.5217 36.1564 26.9032 35.9983 27.1845 35.717C27.4659 35.4357 27.6239 35.0542 27.6239 34.6564C27.6239 34.2585 27.4659 33.877 27.1845 33.5957C26.9032 33.3144 26.5217 33.1564 26.1239 33.1564C26.0785 33.1564 26.0358 33.1657 25.9911 33.1699L25.489 36.0109C25.6873 36.1057 25.9041 36.1554 26.1239 36.1564Z" fill="#F8B62B"/>
<path d="M24.5587 7.14633L26.0865 5.6572L23.9752 5.35045L23.5466 4.4812L23.0557 5.47533L20.9448 5.78208L22.4722 7.2712L22.2311 8.6767L22.1118 9.37383L23.6343 8.5732L23.9999 8.3812L24.8471 8.8267L24.5587 7.14633Z" fill="#FD748C"/>
<path d="M8.30291 5.90065L8.31528 4.90803L7.40141 5.59015L5.38128 4.90503L6.06641 6.92553L5.20991 8.07303L4.79028 8.63515L6.53253 8.61303L6.92366 8.60778L7.49441 9.41515L8.00741 7.76553L10.0444 7.13253L8.30291 5.90065Z" fill="#2EC3FC"/>
<path d="M39.6971 5.90065L39.6847 4.90803L40.5986 5.59015L42.6187 4.90503L41.9336 6.92553L42.7901 8.07303L43.2097 8.63515L41.4674 8.61303L41.0763 8.60778L40.5056 9.41515L39.9926 7.76553L37.9556 7.13253L39.6971 5.90065Z" fill="#1BA4FC"/>
</svg>
