<svg width="168" height="160" viewBox="0 0 168 160" fill="none" xmlns="http://www.w3.org/2000/svg">
<g id="undraw_access_denied_re_awnf 1" clip-path="url(#clip0_22145_2461)">
<path id="Path 968" d="M140.944 37.9227H140.069V13.9023C140.069 10.2152 138.604 6.67907 135.997 4.07189C133.39 1.4647 129.854 1.81348e-09 126.166 1.81348e-09H75.2748C73.4491 -2.94852e-05 71.6413 0.359535 69.9546 1.05816C68.2679 1.75679 66.7353 2.7808 65.4443 4.07173C64.1533 5.36266 63.1293 6.89522 62.4306 8.58191C61.7319 10.2686 61.3723 12.0764 61.3723 13.9021V145.68C61.3723 149.367 62.837 152.903 65.4441 155.51C68.0513 158.118 71.5874 159.582 75.2746 159.582H126.166C129.853 159.582 133.389 158.118 135.996 155.51C138.603 152.903 140.068 149.367 140.068 145.68V55.0209H140.944L140.944 37.9227Z" fill="#3F3D56"/>
<path id="Path 969" d="M137.217 12.9711V146.611C137.217 149.406 136.106 152.087 134.13 154.064C132.153 156.041 129.472 157.152 126.677 157.153H74.741C71.9444 157.154 69.2622 156.043 67.2842 154.066C65.3063 152.089 64.1946 149.407 64.1938 146.611V12.9711C64.1946 10.1746 65.3062 7.49295 67.2841 5.51594C69.2619 3.53892 71.9441 2.42848 74.7406 2.42883H81.0407C80.7313 3.18957 80.6136 4.01464 80.6978 4.83154C80.782 5.64843 81.0656 6.43214 81.5236 7.11377C81.9816 7.7954 82.6001 8.35408 83.3246 8.74072C84.0491 9.12736 84.8575 9.3301 85.6787 9.33114H115.288C116.109 9.3301 116.918 9.12736 117.642 8.74072C118.367 8.35408 118.985 7.7954 119.443 7.11377C119.901 6.43214 120.185 5.64843 120.269 4.83154C120.353 4.01464 120.236 3.18957 119.926 2.42883H126.675C129.47 2.42931 132.151 3.53989 134.128 5.51641C136.105 7.49294 137.216 10.1736 137.217 12.9691V12.9711Z" fill="white"/>
<path id="Ellipse 18" d="M100.696 66.6192C112.671 66.6192 122.378 56.9116 122.378 44.9366C122.378 32.9617 112.671 23.2541 100.696 23.2541C88.7209 23.2541 79.0133 32.9617 79.0133 44.9366C79.0133 56.9116 88.7209 66.6192 100.696 66.6192Z" fill="#518672"/>
<path id="Path 39" d="M124.343 89.9492H78.1924C77.9658 89.9489 77.7486 89.8588 77.5884 89.6986C77.4282 89.5384 77.3381 89.3211 77.3378 89.0946V77.6467C77.3381 77.4201 77.4283 77.2029 77.5885 77.0427C77.7487 76.8825 77.9659 76.7924 78.1924 76.7921H124.343C124.57 76.7924 124.787 76.8825 124.947 77.0427C125.108 77.2029 125.198 77.4201 125.198 77.6467V89.0948C125.198 89.3214 125.108 89.5386 124.947 89.6988C124.787 89.859 124.57 89.9491 124.343 89.9494V89.9492ZM78.1924 77.1339C78.0564 77.134 77.9261 77.188 77.8299 77.2842C77.7338 77.3803 77.6797 77.5107 77.6796 77.6467V89.0948C77.6797 89.2308 77.7338 89.3611 77.8299 89.4573C77.9261 89.5534 78.0564 89.6075 78.1924 89.6076H124.343C124.479 89.6075 124.61 89.5534 124.706 89.4573C124.802 89.3611 124.856 89.2308 124.856 89.0948V77.6467C124.856 77.5107 124.802 77.3803 124.706 77.2842C124.61 77.188 124.479 77.134 124.343 77.1339H78.1924Z" fill="#E6E6E6"/>
<path id="Path 40" d="M92.465 80.9149C92.3063 80.9149 92.1541 80.9779 92.0419 81.0901C91.9297 81.2023 91.8667 81.3545 91.8667 81.5132C91.8667 81.6718 91.9297 81.824 92.0419 81.9362C92.1541 82.0484 92.3063 82.1114 92.465 82.1114H120.668C120.827 82.1175 120.981 82.0604 121.098 81.9525C121.214 81.8447 121.283 81.695 121.289 81.5364C121.295 81.3778 121.238 81.2233 121.13 81.1069C121.022 80.9904 120.873 80.9216 120.714 80.9155C120.705 80.9152 120.696 80.9151 120.688 80.9151L92.465 80.9149Z" fill="#E6E6E6"/>
<path id="Path 41" d="M92.465 84.5039C92.3063 84.5039 92.1541 84.5669 92.0419 84.6791C91.9297 84.7913 91.8667 84.9435 91.8667 85.1022C91.8667 85.2609 91.9297 85.413 92.0419 85.5252C92.1541 85.6374 92.3063 85.7005 92.465 85.7005H120.668C120.827 85.7065 120.981 85.6494 121.098 85.5415C121.214 85.4337 121.283 85.284 121.289 85.1254C121.295 84.9668 121.238 84.8123 121.13 84.6959C121.022 84.5795 120.873 84.5106 120.714 84.5046C120.705 84.5042 120.696 84.5041 120.688 84.5041L92.465 84.5039Z" fill="#E6E6E6"/>
<path id="Path 42" d="M124.343 109.03H78.1924C77.9658 109.03 77.7486 108.94 77.5884 108.78C77.4282 108.62 77.3381 108.402 77.3378 108.176V96.728C77.3381 96.5015 77.4283 96.2842 77.5885 96.124C77.7487 95.9638 77.9659 95.8737 78.1924 95.8734H124.343C124.57 95.8737 124.787 95.9638 124.947 96.124C125.108 96.2842 125.198 96.5015 125.198 96.728V108.176C125.198 108.403 125.107 108.62 124.947 108.78C124.787 108.94 124.57 109.03 124.343 109.03ZM78.1924 96.2152C78.0564 96.2153 77.9261 96.2693 77.8299 96.3655C77.7338 96.4616 77.6797 96.592 77.6796 96.728V108.176C77.6797 108.312 77.7338 108.442 77.8299 108.539C77.9261 108.635 78.0564 108.689 78.1924 108.689H124.343C124.479 108.689 124.61 108.635 124.706 108.539C124.802 108.442 124.856 108.312 124.856 108.176V96.728C124.856 96.592 124.802 96.4616 124.706 96.3655C124.61 96.2693 124.479 96.2153 124.343 96.2152H78.1924Z" fill="#E6E6E6"/>
<path id="Path 43" d="M92.465 100.058C92.3063 100.058 92.1541 100.121 92.0419 100.233C91.9297 100.346 91.8667 100.498 91.8667 100.656C91.8667 100.815 91.9297 100.967 92.0419 101.079C92.1541 101.192 92.3063 101.255 92.465 101.255H120.668C120.825 101.254 120.974 101.192 121.086 101.082C121.197 100.972 121.26 100.822 121.263 100.666C121.266 100.51 121.207 100.358 121.099 100.245C120.992 100.131 120.844 100.064 120.688 100.058H92.465V100.058Z" fill="#E6E6E6"/>
<path id="Path 44" d="M92.465 103.648C92.3063 103.648 92.1541 103.711 92.0419 103.823C91.9297 103.935 91.8667 104.088 91.8667 104.246C91.8667 104.405 91.9297 104.557 92.0419 104.669C92.1541 104.782 92.3063 104.845 92.465 104.845H120.668C120.825 104.844 120.974 104.782 121.086 104.672C121.197 104.562 121.26 104.412 121.263 104.256C121.266 104.1 121.207 103.948 121.099 103.835C120.992 103.721 120.844 103.654 120.688 103.648H92.465V103.648Z" fill="#E6E6E6"/>
<path id="Path 39-2" d="M124.343 128.174H78.1924C77.9658 128.174 77.7486 128.084 77.5884 127.924C77.4282 127.763 77.3381 127.546 77.3378 127.32V115.872C77.3381 115.645 77.4283 115.428 77.5885 115.268C77.7487 115.108 77.9659 115.017 78.1924 115.017H124.343C124.57 115.017 124.787 115.108 124.947 115.268C125.108 115.428 125.198 115.645 125.198 115.872V127.32C125.198 127.546 125.108 127.764 124.947 127.924C124.787 128.084 124.57 128.174 124.343 128.174V128.174ZM78.1924 115.359C78.0564 115.359 77.9261 115.413 77.8299 115.509C77.7338 115.605 77.6797 115.736 77.6796 115.872V127.32C77.6797 127.456 77.7338 127.586 77.8299 127.682C77.9261 127.778 78.0564 127.833 78.1924 127.833H124.343C124.479 127.833 124.61 127.778 124.706 127.682C124.802 127.586 124.856 127.456 124.856 127.32V115.872C124.856 115.736 124.802 115.605 124.706 115.509C124.61 115.413 124.479 115.359 124.343 115.359H78.1924Z" fill="#E6E6E6"/>
<path id="Path 40-2" d="M92.465 119.202C92.3063 119.202 92.1541 119.266 92.0419 119.378C91.9297 119.49 91.8667 119.642 91.8667 119.801C91.8667 119.959 91.9297 120.112 92.0419 120.224C92.1541 120.336 92.3063 120.399 92.465 120.399H120.668C120.747 120.402 120.825 120.39 120.899 120.362C120.972 120.335 121.04 120.294 121.098 120.24C121.155 120.187 121.202 120.122 121.235 120.051C121.268 119.98 121.286 119.903 121.289 119.824C121.292 119.745 121.28 119.667 121.252 119.593C121.225 119.52 121.183 119.452 121.13 119.394C121.077 119.337 121.012 119.29 120.941 119.257C120.87 119.225 120.792 119.206 120.714 119.203C120.705 119.203 120.696 119.203 120.688 119.203L92.465 119.202Z" fill="#E6E6E6"/>
<path id="Path 41-2" d="M92.465 122.792C92.3063 122.792 92.1541 122.855 92.0419 122.967C91.9297 123.08 91.8667 123.232 91.8667 123.39C91.8667 123.549 91.9297 123.701 92.0419 123.814C92.1541 123.926 92.3063 123.989 92.465 123.989H120.668C120.747 123.992 120.825 123.979 120.899 123.952C120.972 123.925 121.04 123.883 121.098 123.83C121.155 123.776 121.202 123.712 121.235 123.641C121.268 123.569 121.286 123.492 121.289 123.414C121.292 123.335 121.28 123.257 121.252 123.183C121.225 123.109 121.183 123.042 121.13 122.984C121.077 122.927 121.012 122.88 120.941 122.847C120.87 122.814 120.792 122.796 120.714 122.793C120.705 122.793 120.696 122.792 120.688 122.792H92.465L92.465 122.792Z" fill="#E6E6E6"/>
<path id="Path 970" d="M166.915 160H1.08457C0.844086 160 0.649414 159.895 0.649414 159.765C0.649414 159.636 0.844311 159.531 1.08457 159.531H166.915C167.156 159.531 167.351 159.636 167.351 159.765C167.351 159.895 167.156 160 166.915 160Z" fill="#E6E6E6"/>
<g id="Group 58">
<path id="Path 438" d="M159.892 150.847C159.184 151.096 158.423 151.158 157.684 151.028C156.944 150.898 156.25 150.579 155.67 150.103C154.191 148.862 153.727 146.816 153.35 144.923L152.234 139.322L154.57 140.93C156.25 142.087 157.968 143.281 159.132 144.957C160.295 146.633 160.803 148.92 159.868 150.734" fill="#E6E6E6"/>
<path id="Path 439" d="M159.531 158.018C159.826 155.875 160.128 153.705 159.922 151.54C159.738 149.617 159.152 147.739 157.957 146.199C157.323 145.383 156.552 144.684 155.677 144.133C155.45 143.989 155.24 144.35 155.467 144.493C156.979 145.449 158.149 146.861 158.808 148.525C159.535 150.376 159.652 152.393 159.526 154.358C159.451 155.547 159.29 156.728 159.128 157.907C159.115 157.96 159.123 158.016 159.151 158.064C159.178 158.112 159.222 158.147 159.274 158.164C159.328 158.178 159.384 158.171 159.433 158.144C159.481 158.116 159.516 158.071 159.531 158.018H159.531Z" fill="#F2F2F2"/>
<path id="Path 442" d="M157.415 154.58C157.111 155.042 156.693 155.418 156.202 155.671C155.711 155.925 155.162 156.048 154.61 156.028C153.19 155.96 152.006 154.969 150.941 154.029L147.79 151.246L149.875 151.146C151.375 151.075 152.914 151.008 154.344 151.47C155.773 151.933 157.09 153.046 157.351 154.524" fill="#E6E6E6"/>
<path id="Path 443" d="M160.362 159.249C158.948 156.744 157.305 153.96 154.371 153.071C153.555 152.824 152.699 152.736 151.85 152.81C151.583 152.833 151.65 153.246 151.918 153.223C153.341 153.105 154.761 153.48 155.94 154.287C157.074 155.059 157.957 156.132 158.704 157.27C159.162 157.966 159.572 158.694 159.982 159.42C160.112 159.651 160.495 159.484 160.362 159.249Z" fill="#F2F2F2"/>
</g>
<g id="Group 59">
<path id="Ellipse 5" d="M83.95 86.8899C85.9324 86.8899 87.5395 85.2828 87.5395 83.3004C87.5395 81.318 85.9324 79.7109 83.95 79.7109C81.9676 79.7109 80.3605 81.318 80.3605 83.3004C80.3605 85.2828 81.9676 86.8899 83.95 86.8899Z" fill="#518672"/>
<path id="Path 40-3" d="M82.2316 82.6299C82.1903 82.6299 82.1569 82.8978 82.1569 83.2281C82.1569 83.5583 82.1903 83.8265 82.2316 83.8265H85.7612C85.8025 83.8318 85.8366 83.5685 85.8373 83.2382C85.8602 83.0325 85.835 82.8243 85.7636 82.6301H82.2316V82.6299Z" fill="#E6E6E6"/>
</g>
<g id="Group 60">
<path id="Ellipse 5-2" d="M83.95 106.041C85.9324 106.041 87.5395 104.434 87.5395 102.452C87.5395 100.47 85.9324 98.8625 83.95 98.8625C81.9676 98.8625 80.3605 100.47 80.3605 102.452C80.3605 104.434 81.9676 106.041 83.95 106.041Z" fill="#518672"/>
<path id="Path 40-4" d="M82.2316 101.781C82.1903 101.781 82.1569 102.049 82.1569 102.38C82.1569 102.71 82.1903 102.978 82.2316 102.978H85.7612C85.8025 102.983 85.8366 102.72 85.8373 102.39C85.8602 102.184 85.835 101.976 85.7636 101.782L82.2316 101.781Z" fill="#E6E6E6"/>
</g>
<g id="Group 61">
<path id="Ellipse 5-3" d="M83.95 125.185C85.9324 125.185 87.5395 123.578 87.5395 121.596C87.5395 119.613 85.9324 118.006 83.95 118.006C81.9676 118.006 80.3605 119.613 80.3605 121.596C80.3605 123.578 81.9676 125.185 83.95 125.185Z" fill="#518672"/>
<path id="Path 40-5" d="M82.2316 120.925C82.1903 120.925 82.1569 121.193 82.1569 121.523C82.1569 121.854 82.1903 122.122 82.2316 122.122H85.7612C85.8025 122.127 85.8366 121.864 85.8373 121.533C85.8602 121.328 85.835 121.12 85.7636 120.925L82.2316 120.925Z" fill="#E6E6E6"/>
</g>
<path id="Vector" d="M96.0121 38.9827L94.7419 40.2529L105.38 50.8906L106.65 49.6204L96.0121 38.9827Z" fill="white"/>
<path id="Vector_2" d="M106.65 40.2528L105.38 38.9827L94.7419 49.6204L96.0121 50.8906L106.65 40.2528Z" fill="white"/>
<path id="Vector_3" d="M20.9161 102.42C21.2273 102.31 21.5105 102.133 21.7459 101.901C21.9813 101.67 22.163 101.39 22.2783 101.08C22.3937 100.771 22.4398 100.44 22.4135 100.111C22.3871 99.7821 22.289 99.4628 22.1259 99.1758L27.4172 93.1439L23.2867 92.574L18.8952 98.3894C18.4313 98.6953 18.0956 99.1608 17.9519 99.6977C17.8082 100.235 17.8664 100.805 18.1155 101.302C18.3646 101.799 18.7873 102.187 19.3035 102.393C19.8196 102.599 20.3934 102.609 20.9161 102.42Z" fill="#9F616A"/>
<path id="Vector_4" d="M27.2975 155.878L23.6072 155.878L21.8515 141.643L27.2981 141.644L27.2975 155.878Z" fill="#9F616A"/>
<path id="Vector_5" d="M28.2386 159.455L16.3392 159.455V159.304C16.3393 158.076 16.8273 156.898 17.6959 156.029C18.5644 155.161 19.7425 154.673 20.9708 154.673H20.9711L28.2388 154.673L28.2386 159.455Z" fill="#2F2E41"/>
<path id="Vector_6" d="M46.6154 152.79L43.091 153.884L37.1933 140.81L42.395 139.195L46.6154 152.79Z" fill="#9F616A"/>
<path id="Vector_7" d="M48.5751 155.927L37.2108 159.455L37.1662 159.311C36.802 158.138 36.9187 156.869 37.4907 155.782C38.0626 154.695 39.0429 153.879 40.216 153.515L40.2163 153.515L47.1572 151.36L48.5751 155.927Z" fill="#2F2E41"/>
<path id="Path 973" d="M24.4714 90.2516L19.0059 96.5112L23.2847 96.8962L24.4714 90.2516Z" fill="#E6E6E6"/>
<path id="Path 975" d="M22.3358 98.32C22.3358 98.32 20.4373 99.2691 20.2 103.541C19.9626 107.812 20.912 118.967 20.912 118.967C20.912 118.967 19.9628 123.95 20.912 128.459C21.8611 132.967 19.9628 149.341 21.1493 149.341C22.3358 149.341 28.5056 150.053 28.743 149.341C28.9803 148.629 29.2176 137.95 29.2176 137.95C29.2176 137.95 31.1161 132.492 29.2176 129.171C29.2176 129.171 35.8462 140.745 40.1336 149.579C41.0719 151.512 48.2019 149.341 47.0155 147.206C45.829 145.07 42.9814 135.34 42.9814 135.34C42.9814 135.34 40.8456 128.221 37.0489 125.136L38.9473 109.949C38.9473 109.949 42.9816 99.7445 40.6089 98.3207C38.2362 96.8969 22.3358 98.32 22.3358 98.32Z" fill="#2F2E41"/>
<path id="Ellipse 182" d="M29.4548 59.639C32.8623 59.639 35.6246 56.8766 35.6246 53.4691C35.6246 50.0616 32.8623 47.2992 29.4548 47.2992C26.0473 47.2992 23.2849 50.0616 23.2849 53.4691C23.2849 56.8766 26.0473 59.639 29.4548 59.639Z" fill="#A0616A"/>
<path id="Path 976" d="M36.3367 60.1136L28.6664 64.6224C28.6664 64.6224 25.7295 66.2763 24.6324 69.1311C23.463 72.1736 24.1427 76.4573 24.6324 77.4368C25.5815 79.3353 24.2343 84.0813 24.2343 84.0813L23.0478 94.9972C23.0478 94.9972 18.7764 99.0313 22.0987 99.506C25.421 99.9807 31.3535 99.2686 34.9131 99.506C38.4727 99.7433 42.5068 100.218 41.3203 97.8444C40.1338 95.4708 38.71 93.8101 40.1338 89.0649C41.248 85.3511 41.1997 71.465 41.1261 65.6007C41.1159 64.7954 40.8999 64.006 40.4986 63.3078C40.0973 62.6095 39.524 62.0255 38.8333 61.6113L36.3367 60.1136Z" fill="#E5E5E5"/>
<path id="Path 980" opacity="0.1" d="M32.8968 67.589L33.6085 82.0645L26.7094 96.036L25.5393 95.5907L32.6585 82.539L32.8968 67.589Z" fill="black"/>
<path id="Path 982" opacity="0.1" d="M40.7269 85.1492V83.4876L32.6594 96.7772L40.7269 85.1492Z" fill="black"/>
<path id="Path 983" d="M25.0759 47.7535L24.0567 47.3457C24.0567 47.3457 26.1898 44.9977 29.1566 45.2018L28.322 44.283C28.322 44.283 30.3619 43.4664 32.2166 45.61C33.1916 46.737 34.3194 48.0618 35.0234 49.5538H36.1157L35.6599 50.5578L37.2555 51.5617L35.6177 51.382C35.7728 52.2487 35.7197 53.1398 35.4628 53.982L35.5077 54.7755C35.5077 54.7755 33.6083 51.8365 33.6083 51.4287V52.4497C33.6083 52.4497 32.5882 51.5309 32.5882 50.9184L32.0318 51.6331L31.7536 50.5104L28.3227 51.6331L28.8786 50.7138L26.7455 51.0201L27.5801 49.8974C27.5801 49.8974 25.1693 51.2244 25.0765 52.3475C24.9838 53.4707 23.7785 54.8997 23.7785 54.8997L23.2221 53.8787C23.2221 53.8787 22.3877 49.2848 25.0759 47.7535Z" fill="#2F2E41"/>
<path id="Vector_8" d="M29.0676 103.091C29.3543 102.928 29.6016 102.703 29.7921 102.434C29.9827 102.164 30.1118 101.856 30.1704 101.531C30.229 101.206 30.2157 100.873 30.1313 100.553C30.047 100.234 29.8937 99.9375 29.6823 99.684L33.8189 92.8087L29.6529 92.9811L26.3634 99.4836C25.9611 99.867 25.7134 100.385 25.6673 100.939C25.6211 101.492 25.7798 102.044 26.1131 102.489C26.4464 102.933 26.9313 103.24 27.4758 103.351C28.0203 103.462 28.5867 103.37 29.0676 103.091Z" fill="#9F616A"/>
<path id="Path 981" d="M38.4727 63.199L40.2524 62.8431C40.2524 62.8431 45.5917 66.7586 43.9305 74.5896C42.2694 82.4206 34.9131 94.2859 34.9131 94.2859C34.9131 94.2859 33.2515 96.4217 32.7773 96.8962C32.303 97.3706 31.3535 96.8962 31.8281 97.6082C32.3028 98.3202 31.1161 98.7947 31.1161 98.7947C31.1161 98.7947 25.8954 98.7947 26.3701 96.8962C26.8447 94.9977 34.9131 81.4704 34.9131 81.4704L33.7266 68.8933C33.7266 68.8933 32.777 62.7244 38.4727 63.199Z" fill="#E5E5E5"/>
</g>
<defs>
<clipPath id="clip0_22145_2461">
<rect width="166.701" height="160" fill="white" transform="translate(0.649414)"/>
</clipPath>
</defs>
</svg>
