<svg width="100" height="36" viewBox="0 0 100 36" fill="none" xmlns="http://www.w3.org/2000/svg">
  <rect width="100" height="36" rx="4" fill="#F8FAFC" />
  <path d="M20.256 27H13.632L24.72 9.624H15.168V6.696H31.104L20.016 24.072H30.384V27H20.256Z" fill="#1E40AF"/>
  <path d="M33.0139 27V15.096H36.1259V17.784C36.7818 15.912 38.4219 14.808 40.3739 14.808V18.216C38.2299 18.072 36.2939 18.936 36.1259 21.24V27H33.0139Z" fill="#1E40AF"/>
  <path d="M49.603 27.288C44.647 27.288 41.559 23.88 41.559 18.96C41.559 14.04 44.647 10.632 49.603 10.632C53.923 10.632 56.659 13.416 57.043 17.352H53.451C53.163 15.192 51.691 13.848 49.603 13.848C46.707 13.848 44.815 15.912 44.815 18.96C44.815 22.008 46.707 24.072 49.603 24.072C51.691 24.072 53.163 22.728 53.451 20.568H57.043C56.659 24.504 53.923 27.288 49.603 27.288Z" fill="#1E40AF"/>
  <path d="M71.2905 11.04L73.8105 13.536L76.3305 11.04L78.8505 13.536L82.4425 9.96L85.5305 13.032L81.9625 16.608L84.4825 19.104L81.9625 21.624L84.4825 24.12L81.0185 27.6L78.3385 24.936L74.7705 28.488L71.6825 25.416L75.2265 21.864L72.7065 19.368L70.1865 21.864L67.6665 19.368L64.0745 22.944L60.9865 19.872L64.5545 16.296L62.0585 13.8L64.5545 11.28L62.0585 8.784L65.5225 5.304L68.2025 7.968L71.7945 4.416L74.8825 7.488L71.2905 11.04Z" fill="#1E40AF"/>
</svg> 